<svg width="16" height="16" viewBox="0 0 16 16" fill="none" xmlns="http://www.w3.org/2000/svg">
<path d="M6.09972 9.52319C6.3074 9.52319 6.47578 9.69172 6.4759 9.89938V12.8906C6.47573 13.0982 6.30738 13.2668 6.09972 13.2668C5.89222 13.2666 5.72371 13.0981 5.72354 12.8906V10.8075L2.64211 13.8899C2.49523 14.0367 2.25707 14.0367 2.11017 13.8899C1.96327 13.743 1.96329 13.5048 2.11017 13.3579L5.1916 10.2756H3.10939C2.90171 10.2755 2.73321 10.1071 2.73321 9.89938C2.73334 9.69178 2.90179 9.52328 3.10939 9.52319H6.09972Z" fill="black"/>
<path d="M13.3573 2.11019C13.5042 1.96327 13.7431 1.96327 13.89 2.11019C14.0366 2.25708 14.0367 2.49531 13.89 2.64215L10.8078 5.72374H12.89C13.0977 5.72374 13.2661 5.8923 13.2662 6.09994C13.2662 6.3077 13.0978 6.47613 12.89 6.47613H9.89971C9.69196 6.47613 9.52354 6.3077 9.52354 6.09994V3.10946C9.52358 2.90173 9.69198 2.73326 9.89971 2.73326C10.1074 2.73328 10.2758 2.90174 10.2759 3.10946V5.19177L13.3573 2.11019Z" fill="black"/>
</svg>
