<svg width="16" height="16" viewBox="0 0 16 16" fill="none" xmlns="http://www.w3.org/2000/svg">
<path d="M5.83445 9.63389C5.98136 9.48717 6.21953 9.48705 6.36637 9.63389C6.51305 9.78075 6.51305 10.0189 6.36637 10.1658L3.28427 13.2477H5.36644C5.57419 13.2477 5.74261 13.4161 5.74261 13.6239C5.74242 13.8314 5.57408 14 5.36644 14H2.37617C2.16853 14 2.00018 13.8314 2 13.6239V10.633C2.0001 10.4254 2.16848 10.2569 2.37617 10.2569C2.58386 10.2569 2.75224 10.4254 2.75234 10.633V12.7151L5.83445 9.63389Z" fill="black"/>
<path d="M13.6231 2C13.8307 2 13.9998 2.16856 14 2.37615L13.9993 5.36696C13.9992 5.57462 13.8308 5.74311 13.6231 5.74311C13.4156 5.74292 13.247 5.57449 13.2469 5.36696V3.28493L10.1656 6.36611C10.0187 6.513 9.78053 6.51299 9.63363 6.36611C9.48672 6.21921 9.48672 5.98111 9.63363 5.83421L12.715 2.7523H10.6328C10.4252 2.75219 10.2567 2.58382 10.2567 2.37615C10.2568 2.16863 10.4253 2.00011 10.6328 2H13.6231Z" fill="black"/>
</svg>
