<svg width="16" height="16" viewBox="0 0 16 16" fill="none" xmlns="http://www.w3.org/2000/svg">
<path d="M13.25 8C13.25 6.68522 12.7667 5.48332 11.9681 4.56228L4.56228 11.9681C5.48332 12.7667 6.68522 13.25 8 13.25C10.8995 13.25 13.25 10.8995 13.25 8ZM4.03195 11.4377L11.4377 4.03195C10.5167 3.23331 9.31478 2.75 8 2.75C5.10051 2.75 2.75 5.10051 2.75 8C2.75 9.31478 3.23331 10.5167 4.03195 11.4377ZM14 8C14 11.3137 11.3137 14 8 14C4.68629 14 2 11.3137 2 8C2 4.68629 4.68629 2 8 2C11.3137 2 14 4.68629 14 8Z" fill="black"/>
</svg>
