<svg width="16" height="16" viewBox="0 0 16 16" fill="none" xmlns="http://www.w3.org/2000/svg">
<path d="M8.10254 4.25C8.30952 4.25014 8.47754 4.41798 8.47754 4.625C8.47754 4.83202 8.30952 4.99986 8.10254 5H3.125C2.91789 5 2.75 5.16789 2.75 5.375V12.875C2.75 13.0821 2.91789 13.25 3.125 13.25H10.625C10.8321 13.25 11 13.0821 11 12.875V7.89746C11.0001 7.69048 11.168 7.52246 11.375 7.52246C11.582 7.52246 11.7499 7.69048 11.75 7.89746V12.875C11.75 13.4963 11.2463 14 10.625 14H3.125C2.50368 14 2 13.4963 2 12.875V5.375C2 4.75368 2.50368 4.25 3.125 4.25H8.10254Z" fill="black"/>
<path d="M13.625 2C13.8321 2 14 2.16789 14 2.375V6.125C14 6.33211 13.8321 6.5 13.625 6.5C13.4179 6.5 13.25 6.33211 13.25 6.125V3.28027L7.14014 9.39014C6.99369 9.53658 6.75631 9.53658 6.60986 9.39014C6.46342 9.24369 6.46342 9.00631 6.60986 8.85986L12.7197 2.75H9.875C9.66789 2.75 9.5 2.58211 9.5 2.375C9.5 2.16789 9.66789 2 9.875 2H13.625Z" fill="black"/>
</svg>
