<svg width="16" height="16" viewBox="0 0 16 16" fill="none" xmlns="http://www.w3.org/2000/svg">
<path d="M4.00841 11.0257C4.16621 11.1812 4.24522 11.3976 4.22393 11.6162C4.1762 12.1059 4.06626 12.6155 3.92508 13.0889C4.97125 12.8514 5.61018 12.5759 5.90061 12.4313C6.06547 12.3493 6.25536 12.3299 6.43387 12.3769C6.92725 12.5069 7.45307 12.5773 8 12.5773C10.9967 12.5773 13.25 10.5089 13.25 8.15701C13.25 5.80508 10.9967 3.73672 8 3.73672C5.0033 3.73672 2.75 5.80508 2.75 8.15701C2.75 9.23857 3.21298 10.2422 4.00841 11.0257ZM3.63867 13.9026C3.63362 13.9036 3.62856 13.9046 3.6235 13.9055C3.55463 13.9189 3.48442 13.932 3.41286 13.9449C3.3125 13.9629 3.20948 13.9805 3.10379 13.9975C2.95453 14.0215 2.84027 13.8681 2.89923 13.7313C2.93775 13.6419 2.97573 13.5482 3.01273 13.4511C3.03623 13.3894 3.05934 13.3263 3.08194 13.262C3.08291 13.2592 3.08389 13.2565 3.08486 13.2537C3.27067 12.7235 3.42197 12.114 3.47734 11.5459C2.5573 10.6397 2 9.45427 2 8.15701C2 5.30887 4.68629 3 8 3C11.3137 3 14 5.30887 14 8.15701C14 11.0051 11.3137 13.314 8 13.314C7.38743 13.314 6.79631 13.2351 6.23963 13.0885C5.85002 13.2824 5.01075 13.6355 3.63867 13.9026Z" fill="black"/>
</svg>
