<svg width="16" height="16" viewBox="0 0 16 16" fill="none" xmlns="http://www.w3.org/2000/svg">
<path d="M3.64651 1.64652C3.84177 1.45126 4.15828 1.45126 4.35354 1.64652L10.3535 7.64652C10.5488 7.84179 10.5488 8.1583 10.3535 8.35355L4.35354 14.3536C4.15829 14.5488 3.84177 14.5488 3.64651 14.3536C3.45125 14.1583 3.45125 13.8418 3.64651 13.6465L9.29299 8.00004L3.64651 2.35355C3.45125 2.15829 3.45125 1.84179 3.64651 1.64652Z" fill="black"/>
<path d="M7.64651 1.64652C7.84177 1.45126 8.15828 1.45126 8.35354 1.64652L14.3535 7.64652C14.5488 7.84179 14.5488 8.1583 14.3535 8.35355L8.35354 14.3536C8.15829 14.5488 7.84177 14.5488 7.64651 14.3536C7.45125 14.1583 7.45125 13.8418 7.64651 13.6465L13.293 8.00004L7.64651 2.35355C7.45125 2.15829 7.45125 1.84179 7.64651 1.64652Z" fill="black"/>
</svg>
