<svg width="16" height="16" viewBox="0 0 16 16" fill="none" xmlns="http://www.w3.org/2000/svg">
<path d="M7.64652 1.64652C7.84178 1.45126 8.15829 1.45126 8.35355 1.64652C8.54878 1.84179 8.5488 2.1583 8.35355 2.35355L2.70707 8.00004L8.35355 13.6465C8.54878 13.8418 8.5488 14.1583 8.35355 14.3536C8.1583 14.5488 7.84179 14.5488 7.64652 14.3536L1.64652 8.35355C1.45126 8.15829 1.45126 7.84178 1.64652 7.64652L7.64652 1.64652Z" fill="black"/>
<path d="M11.6465 1.64652C11.8418 1.45126 12.1583 1.45126 12.3536 1.64652C12.5488 1.84179 12.5488 2.1583 12.3536 2.35355L6.70707 8.00004L12.3536 13.6465C12.5488 13.8418 12.5488 14.1583 12.3536 14.3536C12.1583 14.5488 11.8418 14.5488 11.6465 14.3536L5.64652 8.35355C5.45126 8.15829 5.45126 7.84178 5.64652 7.64652L11.6465 1.64652Z" fill="black"/>
</svg>
