<svg width="16" height="16" viewBox="0 0 16 16" fill="none" xmlns="http://www.w3.org/2000/svg">
<path d="M8 4.625C8 4.41789 7.83211 4.25 7.625 4.25C7.41789 4.25 7.25 4.41789 7.25 4.625V8.75C7.25 8.88457 7.32211 9.00883 7.43895 9.07559L10.0639 10.5756C10.2438 10.6783 10.4728 10.6159 10.5756 10.4361C10.6783 10.2562 10.6159 10.0272 10.4361 9.92441L8 8.53238V4.625Z" fill="black"/>
<path d="M8 14C11.3137 14 14 11.3137 14 8C14 4.68629 11.3137 2 8 2C4.68629 2 2 4.68629 2 8C2 11.3137 4.68629 14 8 14ZM13.25 8C13.25 10.8995 10.8995 13.25 8 13.25C5.1005 13.25 2.75 10.8995 2.75 8C2.75 5.1005 5.1005 2.75 8 2.75C10.8995 2.75 13.25 5.1005 13.25 8Z" fill="black"/>
</svg>
