<svg width="16" height="16" viewBox="0 0 16 16" fill="none" xmlns="http://www.w3.org/2000/svg">
<path d="M2.375 9.40288C2.58211 9.40288 2.75 9.56393 2.75 9.7626V11.5612C2.75 11.9585 3.08579 12.2806 3.5 12.2806H12.5C12.9142 12.2806 13.25 11.9585 13.25 11.5612V9.7626C13.25 9.56393 13.4179 9.40288 13.625 9.40288C13.8321 9.40288 14 9.56393 14 9.7626V11.5612C14 12.3558 13.3284 13 12.5 13H3.5C2.67157 13 2 12.3558 2 11.5612V9.7626C2 9.56393 2.16789 9.40288 2.375 9.40288Z" fill="black"/>
<path d="M7.73484 10.8083C7.88128 10.9488 8.11872 10.9488 8.26517 10.8083L10.5152 8.65003C10.6616 8.50955 10.6616 8.2818 10.5152 8.14132C10.3687 8.00084 10.1313 8.00084 9.98483 8.14132L8.375 9.68552V3.35971C8.375 3.16105 8.20711 3 8 3C7.79289 3 7.625 3.16105 7.625 3.35971V9.68552L6.01516 8.14132C5.86872 8.00084 5.63128 8.00084 5.48484 8.14132C5.33839 8.2818 5.33839 8.50955 5.48484 8.65003L7.73484 10.8083Z" fill="black"/>
</svg>
