<svg width="16" height="16" viewBox="0 0 16 16" fill="none" xmlns="http://www.w3.org/2000/svg">
<path d="M6.5 6.21429C6.5 6.80602 5.99632 7.28571 5.375 7.28571C4.75368 7.28571 4.25 6.80602 4.25 6.21429C4.25 5.62255 4.75368 5.14286 5.375 5.14286C5.99632 5.14286 6.5 5.62255 6.5 6.21429Z" fill="black"/>
<path d="M3.5 3C2.67157 3 2 3.63959 2 4.42857V11.5714C2 12.3604 2.67157 13 3.5 13H12.5C13.3284 13 14 12.3604 14 11.5714V4.42857C14 3.63959 13.3284 3 12.5 3H3.5ZM12.5 3.71429C12.9142 3.71429 13.25 4.03408 13.25 4.42857V9.07144L10.4177 7.68057C10.2733 7.61182 10.099 7.63877 9.98483 7.74747L7.20222 10.3976L5.20801 9.13142C5.05928 9.03699 4.86123 9.05566 4.73484 9.17604L2.75 10.8572V4.42857C2.75 4.03408 3.08579 3.71429 3.5 3.71429H12.5Z" fill="black"/>
</svg>
