<svg width="16" height="16" viewBox="0 0 16 16" fill="none" xmlns="http://www.w3.org/2000/svg">
<path d="M4.71491 6.54244L3.34315 7.9142C2.17158 9.08577 2.17158 10.9853 3.34315 12.1568C4.51473 13.3284 6.41422 13.3284 7.58579 12.1568L9.41422 10.3284C10.5858 9.15684 10.5858 7.25735 9.41422 6.08577C9.16628 5.83784 8.88575 5.64237 8.58641 5.49938L8.00001 6.08578C7.93903 6.14675 7.88757 6.21365 7.84564 6.28461C8.16107 6.37499 8.45865 6.54442 8.70711 6.79288C9.48816 7.57393 9.48816 8.84026 8.70711 9.62131L6.87869 11.4497C6.09764 12.2308 4.83131 12.2308 4.05026 11.4497C3.26921 10.6687 3.26921 9.40236 4.05026 8.62131L4.84286 7.8287C4.73067 7.40858 4.68802 6.97375 4.71491 6.54244Z" fill="black"/>
<path d="M6.58579 4.67156C5.41422 5.84313 5.41422 7.74263 6.58579 8.9142C6.83373 9.16214 7.11427 9.3576 7.41361 9.5006L8.1892 8.72501C7.86086 8.63732 7.55049 8.46468 7.2929 8.2071C6.51185 7.42605 6.51185 6.15972 7.2929 5.37867L9.12133 3.55024C9.90238 2.76919 11.1687 2.76919 11.9498 3.55024C12.7308 4.33129 12.7308 5.59762 11.9498 6.37867L11.1571 7.17128C11.2693 7.5914 11.312 8.02623 11.2851 8.45754L12.6569 7.08577C13.8284 5.9142 13.8284 4.01471 12.6569 2.84313C11.4853 1.67156 9.58579 1.67156 8.41422 2.84313L6.58579 4.67156Z" fill="black"/>
</svg>
