<svg width="16" height="16" viewBox="0 0 16 16" fill="none" xmlns="http://www.w3.org/2000/svg">
<path fill-rule="evenodd" clip-rule="evenodd" d="M5.42857 12.1C5.42857 11.8515 5.62045 11.65 5.85714 11.65H13.5714C13.8081 11.65 14 11.8515 14 12.1C14 12.3485 13.8081 12.55 13.5714 12.55H5.85714C5.62045 12.55 5.42857 12.3485 5.42857 12.1Z" fill="black"/>
<path fill-rule="evenodd" clip-rule="evenodd" d="M5.42857 8.5C5.42857 8.25147 5.62045 8.05 5.85714 8.05H13.5714C13.8081 8.05 14 8.25147 14 8.5C14 8.74853 13.8081 8.95 13.5714 8.95H5.85714C5.62045 8.95 5.42857 8.74853 5.42857 8.5Z" fill="black"/>
<path fill-rule="evenodd" clip-rule="evenodd" d="M5.42857 4.9C5.42857 4.65147 5.62045 4.45 5.85714 4.45H13.5714C13.8081 4.45 14 4.65147 14 4.9C14 5.14853 13.8081 5.35 13.5714 5.35H5.85714C5.62045 5.35 5.42857 5.14853 5.42857 4.9Z" fill="black"/>
<path fill-rule="evenodd" clip-rule="evenodd" d="M2.85714 5.8C3.33053 5.8 3.71429 5.39706 3.71429 4.9C3.71429 4.40294 3.33053 4 2.85714 4C2.38376 4 2 4.40294 2 4.9C2 5.39706 2.38376 5.8 2.85714 5.8Z" fill="black"/>
<path fill-rule="evenodd" clip-rule="evenodd" d="M2.85714 9.4C3.33053 9.4 3.71429 8.99706 3.71429 8.5C3.71429 8.00294 3.33053 7.6 2.85714 7.6C2.38376 7.6 2 8.00294 2 8.5C2 8.99706 2.38376 9.4 2.85714 9.4Z" fill="black"/>
<path fill-rule="evenodd" clip-rule="evenodd" d="M2.85714 13C3.33053 13 3.71429 12.5971 3.71429 12.1C3.71429 11.6029 3.33053 11.2 2.85714 11.2C2.38376 11.2 2 11.6029 2 12.1C2 12.5971 2.38376 13 2.85714 13Z" fill="black"/>
</svg>
