<svg width="16" height="16" viewBox="0 0 16 16" fill="none" xmlns="http://www.w3.org/2000/svg">
<path fill-rule="evenodd" clip-rule="evenodd" d="M5.42857 11.6991C5.42857 11.4671 5.62045 11.2791 5.85714 11.2791H13.5714C13.8081 11.2791 14 11.4671 14 11.6991C14 11.931 13.8081 12.119 13.5714 12.119H5.85714C5.62045 12.119 5.42857 11.931 5.42857 11.6991Z" fill="black"/>
<path fill-rule="evenodd" clip-rule="evenodd" d="M5.42857 8.33923C5.42857 8.10728 5.62045 7.91925 5.85714 7.91925H13.5714C13.8081 7.91925 14 8.10728 14 8.33923C14 8.57117 13.8081 8.7592 13.5714 8.7592H5.85714C5.62045 8.7592 5.42857 8.57117 5.42857 8.33923Z" fill="black"/>
<path fill-rule="evenodd" clip-rule="evenodd" d="M5.42857 4.9794C5.42857 4.74745 5.62045 4.55942 5.85714 4.55942H13.5714C13.8081 4.55942 14 4.74745 14 4.9794C14 5.21135 13.8081 5.39938 13.5714 5.39938H5.85714C5.62045 5.39938 5.42857 5.21135 5.42857 4.9794Z" fill="black"/>
<path d="M2.61105 12.0058V11.6072H2.85714C3.04297 11.6072 3.16853 11.4923 3.16853 11.3414C3.16853 11.1856 3.03292 11.0806 2.85882 11.0806C2.66797 11.0806 2.54408 11.2085 2.53906 11.3414H2.03348C2.04688 10.9493 2.35324 10.6803 2.87891 10.6803C3.38281 10.6786 3.69587 10.9247 3.69922 11.2709C3.70257 11.5891 3.43973 11.745 3.27734 11.7696V11.7975C3.49498 11.8172 3.76116 11.9779 3.76451 12.3274C3.76786 12.7752 3.33426 13 2.86384 13C2.30134 13 2.0067 12.6883 2 12.3323H2.49888C2.50558 12.4816 2.65792 12.5899 2.86049 12.5915C3.07812 12.5915 3.22377 12.4701 3.2221 12.2978C3.22042 12.1338 3.08984 12.0058 2.86719 12.0058H2.61105Z" fill="black"/>
<path d="M2.6077 8.05869H2.0904V8.02916C2.0904 7.68629 2.34319 7.32045 2.91071 7.32045C3.41127 7.32045 3.73438 7.59442 3.73438 7.95534C3.73438 8.28181 3.51339 8.47375 3.32589 8.66734L2.86551 9.14801V9.17262H3.76953V9.59916H2.12221V9.26777L2.94252 8.43602C3.06138 8.31626 3.19364 8.18009 3.19364 8.00948C3.19364 7.85855 3.06808 7.74043 2.90067 7.74043C2.71652 7.74043 2.6077 7.87495 2.6077 8.02424C2.6077 8.03573 2.6077 8.05049 2.6077 8.05869Z" fill="black"/>
<path d="M3.34029 6.23934H2.79621V4.49544H2.76942L2.25714 4.84816V4.3724L2.79621 4H3.34029V6.23934Z" fill="black"/>
</svg>
