<svg width="16" height="16" viewBox="0 0 16 16" fill="none" xmlns="http://www.w3.org/2000/svg">
<path fill-rule="evenodd" clip-rule="evenodd" d="M13.8627 2.085C13.9496 2.15623 14 2.26266 14 2.375V12.875C14 13.0538 13.8738 13.2077 13.6985 13.2427L9.94854 13.9927C9.9 14.0024 9.85 14.0024 9.80146 13.9927L6.125 13.2574L2.44854 13.9927C2.33838 14.0147 2.22414 13.9862 2.13725 13.915C2.05037 13.8438 2 13.7373 2 13.625V3.125C2 2.94625 2.12617 2.79234 2.30146 2.75729L6.05146 2.00729C6.1 1.99758 6.15 1.99758 6.19854 2.00729L9.875 2.74258L13.5515 2.00729C13.6616 1.98525 13.7759 2.01377 13.8627 2.085ZM9.5 3.43243L6.5 2.83243V12.5676L9.5 13.1676V3.43243ZM10.25 13.1676L13.25 12.5676V2.83243L10.25 3.43243V13.1676ZM5.75 12.5676V2.83243L2.75 3.43243V13.1676L5.75 12.5676Z" fill="black"/>
</svg>
