<svg width="16" height="16" viewBox="0 0 16 16" fill="none" xmlns="http://www.w3.org/2000/svg">
<path d="M13.75 0.51106L13.9009 0.360146C14.3811 -0.120048 15.1597 -0.120049 15.6399 0.360146C16.12 0.84034 16.12 1.61889 15.6399 2.09908L15.4889 2.25C16.0249 2.84998 16.0049 3.77138 15.4289 4.34735L4.94407 14.8322C4.87879 14.8974 4.797 14.9437 4.70745 14.9661L0.632863 15.9848C0.459298 16.0282 0.275694 15.9773 0.149188 15.8508C0.0226822 15.7243 -0.0281732 15.5407 0.0152179 15.3671L1.03386 11.2926C1.05625 11.203 1.10256 11.1212 1.16783 11.0559L10.9889 1.2349C10.7901 1.09473 10.5135 1.11357 10.3357 1.29141L6.98136 4.6457C6.78246 4.8446 6.45997 4.8446 6.26107 4.6457C6.06216 4.4468 6.06216 4.12431 6.26107 3.92541L9.61536 0.571115C10.1919 -0.00541211 11.1145 -0.0249125 11.7144 0.512615C12.2928 -0.00557604 13.171 -0.00609413 13.75 0.51106ZM13.0932 1.29141C12.8943 1.0925 12.5718 1.0925 12.3729 1.29141L1.98788 11.6765L1.20933 14.7907L4.32353 14.0121L14.7086 3.62705C14.9075 3.42815 14.9075 3.10567 14.7086 2.90676L13.0932 1.29141Z" fill="black"/>
</svg>
