<svg width="16" height="16" viewBox="0 0 16 16" fill="none" xmlns="http://www.w3.org/2000/svg">
<path d="M13.25 13C13.25 13 14 13 14 12.25C14 11.5 13.25 9.25 10.25 9.25C7.25 9.25 6.5 11.5 6.5 12.25C6.5 13 7.25 13 7.25 13H13.25ZM7.26676 12.25C7.26416 12.2497 7.26052 12.2492 7.25611 12.2485C7.25403 12.2481 7.252 12.2478 7.25001 12.2474C7.25109 12.0494 7.37515 11.4752 7.81944 10.9568C8.23501 10.472 8.96201 10 10.25 10C11.538 10 12.265 10.472 12.6806 10.9568C13.1248 11.4752 13.2489 12.0494 13.25 12.2474C13.248 12.2478 13.246 12.2481 13.2439 12.2485C13.2395 12.2492 13.2358 12.2497 13.2332 12.25H7.26676Z" fill="black"/>
<path d="M10.25 7.75C11.0784 7.75 11.75 7.07843 11.75 6.25C11.75 5.42157 11.0784 4.75 10.25 4.75C9.42157 4.75 8.75 5.42157 8.75 6.25C8.75 7.07843 9.42157 7.75 10.25 7.75ZM12.5 6.25C12.5 7.49264 11.4926 8.5 10.25 8.5C9.00736 8.5 8 7.49264 8 6.25C8 5.00736 9.00736 4 10.25 4C11.4926 4 12.5 5.00736 12.5 6.25Z" fill="black"/>
<path d="M7.20195 9.45997C6.9261 9.37174 6.61965 9.30759 6.27971 9.27479C6.11146 9.25856 5.93501 9.25 5.75 9.25C2.75 9.25 2 11.5 2 12.25C2 12.75 2.25 13 2.75 13H5.91227C5.80667 12.7869 5.75 12.5344 5.75 12.25C5.75 11.4923 6.03293 10.7185 6.56736 10.0721C6.74995 9.85131 6.9619 9.64534 7.20195 9.45997ZM5.69003 10.0003C5.24192 10.6852 5 11.466 5 12.25H2.75C2.75 12.0545 2.87318 11.4775 3.31944 10.9568C3.72851 10.4796 4.43937 10.0148 5.69003 10.0003Z" fill="black"/>
<path d="M3.125 6.625C3.125 5.38236 4.13236 4.375 5.375 4.375C6.61764 4.375 7.625 5.38236 7.625 6.625C7.625 7.86764 6.61764 8.875 5.375 8.875C4.13236 8.875 3.125 7.86764 3.125 6.625ZM5.375 5.125C4.54657 5.125 3.875 5.79657 3.875 6.625C3.875 7.45343 4.54657 8.125 5.375 8.125C6.20343 8.125 6.875 7.45343 6.875 6.625C6.875 5.79657 6.20343 5.125 5.375 5.125Z" fill="black"/>
</svg>
