<svg width="16" height="16" viewBox="0 0 16 16" fill="none" xmlns="http://www.w3.org/2000/svg">
<path fill-rule="evenodd" clip-rule="evenodd" d="M8 9C13 9 14 12 14 13C14 14 13 14 13 14H3C3 14 2 14 2 13C2 12 3 9 8 9ZM8 10C5.7109 10 4.48429 10.6798 3.83203 11.332C3.15408 12.01 3.0016 12.7489 3 12.9961H13C12.9984 12.7489 12.8459 12.01 12.168 11.332C11.5157 10.6798 10.2891 10 8 10Z" fill="black"/>
<path fill-rule="evenodd" clip-rule="evenodd" d="M8 2C9.65685 2 11 3.34315 11 5C11 6.65685 9.65685 8 8 8C6.34315 8 5 6.65685 5 5C5 3.34315 6.34315 2 8 2ZM8 3C6.89543 3 6 3.89543 6 5C6 6.10457 6.89543 7 8 7C9.10457 7 10 6.10457 10 5C10 3.89543 9.10457 3 8 3Z" fill="black"/>
</svg>
