<svg width="16" height="16" viewBox="0 0 16 16" fill="none" xmlns="http://www.w3.org/2000/svg">
<path fill-rule="evenodd" clip-rule="evenodd" d="M8 1.99934C8.27614 1.99934 8.5 2.2232 8.5 2.49934V7.49934H13.5C13.7761 7.49934 14 7.7232 14 7.99934C14 8.27549 13.7761 8.49934 13.5 8.49934H8.5V13.4993C8.5 13.7755 8.27614 13.9993 8 13.9993C7.72386 13.9993 7.5 13.7755 7.5 13.4993V8.49934H2.5C2.22386 8.49934 2 8.27549 2 7.99934C2 7.7232 2.22386 7.49934 2.5 7.49934H7.5V2.49934C7.5 2.2232 7.72386 1.99934 8 1.99934Z" fill="black"/>
</svg>
