<svg width="16" height="16" viewBox="0 0 16 16" fill="none" xmlns="http://www.w3.org/2000/svg">
<path d="M10.8066 9.75792C11.3997 8.95048 11.75 7.95365 11.75 6.875C11.75 4.18261 9.56739 2 6.875 2C4.18261 2 2 4.18261 2 6.875C2 9.56739 4.18261 11.75 6.875 11.75C7.95394 11.75 8.95101 11.3995 9.75856 10.8061L9.75792 10.8066C9.78003 10.8366 9.80467 10.8653 9.83182 10.8925L12.7197 13.7803C13.0126 14.0732 13.4874 14.0732 13.7803 13.7803C14.0732 13.4874 14.0732 13.0126 13.7803 12.7197L10.8925 9.83182C10.8653 9.80467 10.8366 9.78003 10.8066 9.75792ZM11 6.875C11 9.15317 9.15317 11 6.875 11C4.59683 11 2.75 9.15317 2.75 6.875C2.75 4.59683 4.59683 2.75 6.875 2.75C9.15317 2.75 11 4.59683 11 6.875Z" fill="black"/>
</svg>
