<svg width="16" height="16" viewBox="0 0 16 16" fill="none" xmlns="http://www.w3.org/2000/svg">
<path d="M6.5 1H9.5C9.77614 1 10 1.22386 10 1.5V2.5H6V1.5C6 1.22386 6.22386 1 6.5 1ZM11 2.5V1.5C11 0.671573 10.3284 0 9.5 0H6.5C5.67157 0 5 0.671573 5 1.5V2.5H2.50566C2.50226 2.49997 2.49885 2.49997 2.49544 2.5H1.5C1.22386 2.5 1 2.72386 1 3C1 3.27614 1.22386 3.5 1.5 3.5H2.0384L2.89116 14.1595C2.97431 15.1989 3.84207 16 4.88479 16H11.1152C12.1579 16 13.0257 15.1989 13.1088 14.1595L13.9616 3.5H14.5C14.7761 3.5 15 3.27614 15 3C15 2.72386 14.7761 2.5 14.5 2.5H13.5046C13.5011 2.49997 13.4977 2.49997 13.4943 2.5H11ZM12.9584 3.5L12.112 14.0797C12.0704 14.5994 11.6366 15 11.1152 15H4.88479C4.36343 15 3.92955 14.5994 3.88798 14.0797L3.0416 3.5H12.9584Z" fill="black"/>
</svg>
