<svg width="16" height="16" viewBox="0 0 16 16" fill="none" xmlns="http://www.w3.org/2000/svg">
<path d="M13.0089 2.17007C13.2356 1.94331 13.6032 1.94331 13.83 2.17007C14.0567 2.39683 14.0567 2.7644 13.83 2.99114L8.82109 8.00001L13.83 13.0089C14.0567 13.2356 14.0567 13.6032 13.83 13.83C13.6032 14.0567 13.2356 14.0567 13.0089 13.83L8.00001 8.82109L2.99114 13.83C2.7644 14.0567 2.39683 14.0567 2.17007 13.83C1.94331 13.6032 1.94331 13.2356 2.17007 13.0089L7.17894 8.00001L2.17007 2.99114C1.94331 2.76439 1.94331 2.39683 2.17007 2.17007C2.39683 1.94331 2.76439 1.94331 2.99114 2.17007L8.00001 7.17894L13.0089 2.17007Z" fill="black"/>
</svg>
