<svg width="32" height="32" viewBox="0 0 32 32" fill="none" xmlns="http://www.w3.org/2000/svg">
<path fill-rule="evenodd" clip-rule="evenodd" d="M9 15.9997C9 15.867 9.05268 15.7399 9.14645 15.6461C9.24021 15.5523 9.36739 15.4997 9.5 15.4997H21.293L18.146 12.3537C18.0521 12.2598 17.9994 12.1324 17.9994 11.9997C17.9994 11.8669 18.0521 11.7395 18.146 11.6457C18.2399 11.5518 18.3672 11.499 18.5 11.499C18.6328 11.499 18.7601 11.5518 18.854 11.6457L22.854 15.6457C22.9006 15.6921 22.9375 15.7473 22.9627 15.808C22.9879 15.8688 23.0009 15.9339 23.0009 15.9997C23.0009 16.0654 22.9879 16.1305 22.9627 16.1913C22.9375 16.252 22.9006 16.3072 22.854 16.3537L18.854 20.3537C18.7601 20.4475 18.6328 20.5003 18.5 20.5003C18.3672 20.5003 18.2399 20.4475 18.146 20.3537C18.0521 20.2598 17.9994 20.1324 17.9994 19.9997C17.9994 19.8669 18.0521 19.7395 18.146 19.6457L21.293 16.4997H9.5C9.36739 16.4997 9.24021 16.447 9.14645 16.3532C9.05268 16.2594 9 16.1323 9 15.9997Z" fill="currentColor"/>
</svg>
