<svg width="24" height="24" viewBox="0 0 24 24" fill="none" xmlns="http://www.w3.org/2000/svg">
<path d="M14.0006 11.3574C14.3555 11.3576 14.6434 11.6453 14.6434 12.0003C14.6434 12.3552 14.3555 12.643 14.0006 12.6431H10.0003C9.64524 12.6431 9.35742 12.3553 9.35742 12.0003C9.35742 11.6452 9.64524 11.3574 10.0003 11.3574H14.0006Z" fill="#6D797D"/>
<path fill-rule="evenodd" clip-rule="evenodd" d="M21 2.35742C21.7009 2.35742 22.3735 2.63606 22.8691 3.1317C23.3646 3.62725 23.6433 4.29924 23.6434 5V8C23.6434 8.35495 23.3555 8.64271 23.0006 8.64286H21.6429V19.0006C21.6428 19.7013 21.3648 20.3733 20.8694 20.8689C20.3738 21.3645 19.7012 21.6431 19.0003 21.6431H5.00056C4.29963 21.6431 3.62705 21.3645 3.13142 20.8689C2.63594 20.3733 2.35722 19.7013 2.35714 19.0006V8.64286H1.00028C0.645239 8.64286 0.357422 8.35504 0.357422 8V5C0.357496 4.29917 0.63613 3.62726 1.1317 3.1317C1.62726 2.63613 2.29917 2.3575 3 2.35742H21ZM3.64286 19.0006C3.64293 19.3603 3.7861 19.7054 4.04046 19.9598C4.29497 20.2143 4.64062 20.3574 5.00056 20.3574H19.0003C19.3601 20.3574 19.705 20.2142 19.9595 19.9598C20.214 19.7054 20.3571 19.3604 20.3571 19.0006V8.64286H3.64286V19.0006ZM3 3.64314C2.64016 3.64321 2.29518 3.78629 2.04074 4.04074C1.78629 4.29518 1.64321 4.64016 1.64314 5V7.35714H22.3577V5C22.3576 4.64023 22.2145 4.29517 21.9601 4.04074C21.7056 3.78622 21.3599 3.64314 21 3.64314H3Z" fill="#6D797D"/>
</svg>
