<svg width="24" height="24" viewBox="0 0 24 24" fill="none" xmlns="http://www.w3.org/2000/svg">
<path d="M6.85693 11.9996C7.80371 11.9996 8.57122 12.7671 8.57122 13.7139C8.57122 14.6606 7.80371 15.4282 6.85693 15.4282C5.91016 15.4282 5.14265 14.6606 5.14265 13.7139C5.14265 12.7671 5.91016 11.9996 6.85693 11.9996Z" fill="#0B2027"/>
<path fill-rule="evenodd" clip-rule="evenodd" d="M16.9995 1.35645C17.3546 1.35645 17.6424 1.64426 17.6424 1.9993V4.35645H19.0001C20.4595 4.3566 21.6425 5.53963 21.6426 6.99902V19.9993C21.6426 21.4588 20.4596 22.6417 19.0001 22.6419H4.99951C3.54003 22.6417 2.35693 21.4588 2.35693 19.9993V6.99902C2.35708 5.53963 3.54012 4.3566 4.99951 4.35645H6.35721V1.9993C6.35721 1.64426 6.64503 1.35645 7.00007 1.35645C7.35498 1.3566 7.64293 1.64436 7.64293 1.9993V4.35645H16.3567V1.9993C16.3567 1.64435 16.6446 1.3566 16.9995 1.35645ZM3.64265 19.9993C3.64265 20.7487 4.25011 21.356 4.99951 21.3562H19.0001C19.7495 21.356 20.3569 20.7487 20.3569 19.9993V10.6419H3.64265V19.9993ZM4.99951 5.64216C4.2502 5.64231 3.6428 6.24971 3.64265 6.99902V9.35617H20.3569V6.99902C20.3568 6.24972 19.7494 5.64231 19.0001 5.64216H4.99951Z" fill="#0B2027"/>
</svg>
