<svg width="24" height="24" viewBox="0 0 24 24" fill="none" xmlns="http://www.w3.org/2000/svg">
<path d="M10.4022 14.7689L7.62889 11.9956C7.52444 11.8919 7.39667 11.8363 7.24556 11.8289C7.09444 11.8215 6.96 11.877 6.84222 11.9956C6.72444 12.1141 6.66519 12.2452 6.66444 12.3889C6.6637 12.5326 6.72296 12.6637 6.84222 12.7822L9.77333 15.7133C9.95259 15.8933 10.1619 15.9833 10.4011 15.9833C10.6404 15.9833 10.85 15.8933 11.03 15.7133L17.1156 9.62889C17.2193 9.52444 17.2748 9.39667 17.2822 9.24555C17.2896 9.09444 17.2341 8.96 17.1156 8.84222C16.997 8.72444 16.8659 8.66518 16.7222 8.66444C16.5785 8.6637 16.4474 8.72296 16.3289 8.84222L10.4022 14.7689ZM12.0033 22C10.6211 22 9.32111 21.7378 8.10333 21.2133C6.8863 20.6881 5.82741 19.9756 4.92667 19.0756C4.02593 18.1756 3.31296 17.1178 2.78778 15.9022C2.26259 14.6867 2 13.387 2 12.0033C2 10.6196 2.26259 9.31963 2.78778 8.10333C3.31222 6.8863 4.0237 5.82741 4.92222 4.92667C5.82074 4.02593 6.87889 3.31296 8.09667 2.78778C9.31445 2.26259 10.6144 2 11.9967 2C13.3789 2 14.6789 2.26259 15.8967 2.78778C17.1137 3.31222 18.1726 4.02407 19.0733 4.92333C19.9741 5.82259 20.687 6.88074 21.2122 8.09778C21.7374 9.31481 22 10.6144 22 11.9967C22 13.3789 21.7378 14.6789 21.2133 15.8967C20.6889 17.1144 19.9763 18.1733 19.0756 19.0733C18.1748 19.9733 17.117 20.6863 15.9022 21.2122C14.6874 21.7381 13.3878 22.0007 12.0033 22Z" fill="currentColor"/>
</svg>
