<svg width="24" height="24" viewBox="0 0 24 24" fill="none" xmlns="http://www.w3.org/2000/svg">
<g clip-path="url(#clip0_6861_38359)">
<path fill-rule="evenodd" clip-rule="evenodd" d="M11.9999 0.25C12.1987 0.250034 12.3895 0.329105 12.5301 0.469727L18.5262 6.46582C19.9836 7.77912 21.0116 9.50123 21.4745 11.4082C21.9402 13.3271 21.8128 15.3429 21.1083 17.1875C20.4037 19.032 19.1555 20.6195 17.5292 21.7393C15.9028 22.859 13.9744 23.458 11.9999 23.458C10.0253 23.458 8.09695 22.859 6.47057 21.7393C4.84423 20.6195 3.59607 19.032 2.89147 17.1875C2.18688 15.3429 2.05953 13.3271 2.52526 11.4082C2.98814 9.50144 4.01542 7.77906 5.47253 6.46582L11.4696 0.469727L11.5839 0.375977C11.7061 0.294484 11.8508 0.25 11.9999 0.25ZM6.53014 7.53027C6.52039 7.54003 6.51015 7.54939 6.49987 7.55859C5.25451 8.67247 4.37638 10.139 3.98229 11.7627C3.58832 13.3863 3.6967 15.0916 4.29284 16.6523C4.889 18.2129 5.94524 19.5555 7.32116 20.5029C8.69733 21.4504 10.3291 21.958 11.9999 21.958C13.6707 21.958 15.3024 21.4504 16.6786 20.5029C18.0545 19.5555 19.1108 18.2129 19.7069 16.6523C20.303 15.0916 20.4114 13.3862 20.0174 11.7627C19.6234 10.139 18.7452 8.67247 17.4999 7.55859C17.4896 7.54939 17.4794 7.54002 17.4696 7.53027L11.9999 2.06055L6.53014 7.53027Z" fill="currentColor"/>
</g>
<defs>
<clipPath id="clip0_6861_38359">
<rect width="24" height="24" fill="white"/>
</clipPath>
</defs>
</svg>
