<svg width="24" height="24" viewBox="0 0 24 24" fill="none" xmlns="http://www.w3.org/2000/svg">
<path d="M11.4801 11.582C11.8168 11.4695 12.1809 11.6516 12.2934 11.9882C12.4059 12.3249 12.2247 12.6891 11.8881 12.8017C11.5704 12.9079 11.0533 13.1421 10.8349 13.4735C10.6165 13.8048 10.6784 13.9759 10.6784 14.196C10.6784 14.3782 10.7339 14.4401 10.8349 14.4848C11.0082 14.5613 11.4275 14.6174 12.252 14.3818C12.5933 14.2844 12.9488 14.4817 13.0464 14.823C13.1439 15.1642 12.9464 15.5196 12.6053 15.6173C11.68 15.8816 10.9014 15.92 10.3159 15.6617C9.65856 15.3715 9.39264 14.7812 9.39265 14.196C9.39266 13.6484 9.72146 13.0442 10.2858 12.4282C10.7284 11.9449 11.2099 11.6724 11.4801 11.582Z" fill="#6D797D"/>
<path d="M8.14293 8.57101C8.85301 8.57101 9.42864 9.14664 9.42864 9.85672C9.42864 10.5668 8.85301 11.1424 8.14293 11.1424C7.43285 11.1424 6.85721 10.5668 6.85721 9.85672C6.85721 9.14664 7.43285 8.57101 8.14293 8.57101Z" fill="#6D797D"/>
<path d="M15.8572 8.57101C16.5673 8.57101 17.1429 9.14664 17.1429 9.85672C17.1429 10.5668 16.5673 11.1424 15.8572 11.1424C15.1471 11.1424 14.5715 10.5668 14.5715 9.85672C14.5715 9.14664 15.1471 8.57101 15.8572 8.57101Z" fill="#6D797D"/>
<path fill-rule="evenodd" clip-rule="evenodd" d="M12.0001 1.35645C17.8777 1.3566 22.6422 6.12191 22.6424 11.9996C22.6422 17.8772 17.8777 22.6417 12.0001 22.6419C6.12242 22.6417 1.35708 17.8772 1.35693 11.9996C1.35707 6.12192 6.12241 1.35661 12.0001 1.35645ZM12.0001 2.64216C6.83249 2.64233 2.64279 6.832 2.64265 11.9996C2.6428 17.1672 6.8325 21.356 12.0001 21.3562C17.1677 21.356 21.3565 17.1672 21.3567 11.9996C21.3565 6.83199 17.1677 2.64231 12.0001 2.64216Z" fill="#6D797D"/>
</svg>
