<svg width="24" height="24" viewBox="0 0 24 24" fill="none" xmlns="http://www.w3.org/2000/svg">
<path d="M16.0003 16.3564C16.3553 16.3564 16.6431 16.6443 16.6431 16.9993C16.6431 17.3543 16.3553 17.6422 16.0003 17.6422H8.00056C7.64552 17.6422 7.3577 17.3543 7.3577 16.9993C7.3577 16.6443 7.64552 16.3564 8.00056 16.3564H16.0003Z" fill="currentColor"/>
<path d="M16.0003 12.3562C16.3552 12.3562 16.643 12.6441 16.6431 12.999C16.6431 13.3541 16.3553 13.6419 16.0003 13.6419H8.00056C7.64552 13.6419 7.3577 13.3541 7.3577 12.999C7.35785 12.6441 7.64561 12.3562 8.00056 12.3562H16.0003Z" fill="currentColor"/>
<path d="M12 8.35672C12.355 8.35672 12.6429 8.64454 12.6429 8.99958C12.6427 9.35449 12.3549 9.64244 12 9.64244H8.00056C7.64561 9.64244 7.35785 9.35449 7.3577 8.99958C7.3577 8.64454 7.64552 8.35672 8.00056 8.35672H12Z" fill="currentColor"/>
<path fill-rule="evenodd" clip-rule="evenodd" d="M14.1261 1.369C14.2497 1.39368 14.3646 1.45433 14.4551 1.54478L20.4551 7.54478C20.5756 7.66533 20.6434 7.82887 20.6434 7.9993V19.9993C20.6434 20.7002 20.3648 21.3728 19.8691 21.8684C19.3735 22.364 18.7009 22.6419 18 22.6419H6C5.2993 22.6418 4.62724 22.3638 4.1317 21.8684C3.63606 21.3728 3.35742 20.7002 3.35742 19.9993V3.99902C3.3575 3.29819 3.63613 2.62629 4.1317 2.13072C4.62726 1.63515 5.29917 1.35652 6 1.35645H14.0006L14.1261 1.369ZM6 2.64216C5.64016 2.64223 5.29518 2.78531 5.04074 3.03976C4.78629 3.29421 4.64321 3.63919 4.64314 3.99902V19.9993C4.64314 20.3592 4.78631 20.7041 5.04074 20.9586C5.29518 21.213 5.64016 21.3561 6 21.3562H18C18.3599 21.3562 18.7056 21.2131 18.9601 20.9586C19.2144 20.7041 19.3577 20.3591 19.3577 19.9993V8.26549L13.7344 2.64216H6Z" fill="currentColor"/>
</svg>
