<svg width="24" height="24" viewBox="0 0 24 24" fill="none" xmlns="http://www.w3.org/2000/svg">
<path d="M20 7.625V19.5C20 20.163 19.7366 20.7989 19.2678 21.2678C18.7989 21.7366 18.163 22 17.5 22H7.5C6.83696 22 6.20107 21.7366 5.73223 21.2678C5.26339 20.7989 5 20.163 5 19.5V4.5C5 3.83696 5.26339 3.20107 5.73223 2.73223C6.20107 2.26339 6.83696 2 7.5 2H14.375L20 7.625ZM16.25 7.625C15.7527 7.625 15.2758 7.42746 14.9242 7.07583C14.5725 6.72419 14.375 6.24728 14.375 5.75V3.25H7.5C7.16848 3.25 6.85054 3.3817 6.61612 3.61612C6.3817 3.85054 6.25 4.16848 6.25 4.5V19.5C6.25 19.8315 6.3817 20.1495 6.61612 20.3839C6.85054 20.6183 7.16848 20.75 7.5 20.75H17.5C17.8315 20.75 18.1495 20.6183 18.3839 20.3839C18.6183 20.1495 18.75 19.8315 18.75 19.5V7.625H16.25Z" fill="#6D797D"/>
</svg>
