<svg width="24" height="24" viewBox="0 0 24 24" fill="none" xmlns="http://www.w3.org/2000/svg">
<path d="M19.7438 3.10094C19.8226 3.15513 19.8871 3.22844 19.9318 3.31439C19.9765 3.40033 19.9999 3.49628 20 3.59375V12.5C20 12.6186 19.9654 12.7344 19.9009 12.8326C19.8363 12.9308 19.7446 13.0069 19.6377 13.051L19.6342 13.0522L19.6273 13.0558L19.6008 13.0664C19.4491 13.1286 19.2964 13.188 19.1427 13.2446C18.8381 13.3574 18.4146 13.5094 17.9346 13.6602C16.9931 13.9594 15.7665 14.2812 14.8077 14.2812C13.8304 14.2812 13.0215 13.9488 12.3177 13.6578L12.2854 13.6459C11.5538 13.3431 10.9308 13.0938 10.1923 13.0938C9.38462 13.0938 8.30231 13.3669 7.38038 13.6602C6.96767 13.7928 6.55867 13.9373 6.15385 14.0936V21.4062C6.15385 21.5637 6.09306 21.7147 5.98487 21.8261C5.87668 21.9374 5.72993 22 5.57692 22C5.42391 22 5.27717 21.9374 5.16898 21.8261C5.06078 21.7147 5 21.5637 5 21.4062V3.59375C5 3.43628 5.06078 3.28526 5.16898 3.17391C5.27717 3.06256 5.42391 3 5.57692 3C5.72993 3 5.87668 3.06256 5.98487 3.17391C6.09306 3.28526 6.15385 3.43628 6.15385 3.59375V3.92862C6.41462 3.83481 6.72615 3.72675 7.06538 3.61988C8.00692 3.323 9.23462 3 10.1923 3C11.1615 3 11.9508 3.32894 12.6396 3.61631L12.6892 3.63769C13.4069 3.93575 14.0323 4.1875 14.8077 4.1875C15.6154 4.1875 16.6977 3.91438 17.6196 3.62106C18.1448 3.45181 18.664 3.26327 19.1762 3.05581L19.1981 3.0475L19.2027 3.04513H19.2038M18.8462 4.44994C18.5923 4.54256 18.2923 4.64825 17.9623 4.75275C17.0277 5.052 15.8023 5.37381 14.8077 5.37381C13.7854 5.37381 12.9708 5.03419 12.2658 4.73969L12.2565 4.73612C11.5331 4.43687 10.9296 4.1875 10.1923 4.1875C9.42038 4.1875 8.33923 4.45944 7.40577 4.75513C6.98469 4.88865 6.56723 5.03398 6.15385 5.19094V12.8301C6.40769 12.7375 6.70769 12.6318 7.03769 12.5273C7.97231 12.2269 9.19769 11.9062 10.1923 11.9062C11.1696 11.9062 11.9785 12.2387 12.6823 12.5297L12.7146 12.5416C13.4462 12.8444 14.0692 13.0938 14.8077 13.0938C15.5785 13.0938 16.6608 12.8218 17.5942 12.5261C18.0153 12.3926 18.4328 12.2473 18.8462 12.0903V4.45113V4.44994Z" fill="#6D797D"/>
</svg>
