<svg width="24" height="24" viewBox="0 0 24 24" fill="none" xmlns="http://www.w3.org/2000/svg">
<path d="M7.07165 9.8136L5.01401 11.8712C3.25665 13.6286 3.25665 16.4778 5.01401 18.2352C6.77137 19.9926 9.62061 19.9926 11.378 18.2352L14.1206 15.4926C15.878 13.7352 15.878 10.886 14.1206 9.1286C13.7487 8.7567 13.3279 8.4635 12.8789 8.249L11.9993 9.1286C11.9078 9.22007 11.8306 9.32041 11.7677 9.42686C12.2409 9.56243 12.6873 9.81657 13.06 10.1893C14.2315 11.3608 14.2315 13.2603 13.06 14.4319L10.3173 17.1745C9.14574 18.3461 7.24624 18.3461 6.07467 17.1745C4.9031 16.003 4.9031 14.1035 6.07467 12.9319L7.26358 11.743C7.09529 11.1128 7.03131 10.4606 7.07165 9.8136Z" fill="#6D797D"/>
<path d="M9.87797 7.00728C8.12061 8.76464 8.12061 11.6139 9.87797 13.3712C10.2499 13.7431 10.6707 14.0363 11.1197 14.2508L12.2831 13.0874C11.7906 12.9559 11.325 12.697 10.9386 12.3106C9.76706 11.139 9.76706 9.23952 10.9386 8.06794L13.6813 5.3253C14.8528 4.15373 16.7523 4.15373 17.9239 5.3253C19.0955 6.49687 19.0955 8.39637 17.9239 9.56794L16.735 10.7569C16.9033 11.387 16.9673 12.0393 16.9269 12.6862L18.9846 10.6286C20.7419 8.87124 20.7419 6.022 18.9846 4.26464C17.2272 2.50728 14.378 2.50728 12.6206 4.26464L9.87797 7.00728Z" fill="#6D797D"/>
</svg>
