<svg width="24" height="24" viewBox="0 0 24 24" fill="none" xmlns="http://www.w3.org/2000/svg">
<path fill-rule="evenodd" clip-rule="evenodd" d="M11.9848 2.37469C12.2514 2.36827 12.4934 2.53189 12.5863 2.78192C12.6792 3.03211 12.6023 3.31395 12.3959 3.48309C11.0656 4.57155 10.2223 6.14483 10.0512 7.85516C9.88026 9.56546 10.3954 11.2739 11.4838 12.6042C12.5723 13.9345 14.1455 14.7779 15.8559 14.9489C17.566 15.1197 19.2747 14.6046 20.6049 13.5163C20.8116 13.3475 21.1027 13.3279 21.3295 13.4684C21.5561 13.609 21.6688 13.8783 21.6098 14.1384C21.2089 15.8945 20.3228 17.5042 19.0531 18.7819C17.7834 20.0595 16.1797 20.955 14.4262 21.3669C12.6726 21.7786 10.838 21.6899 9.13225 21.111C7.4265 20.532 5.91747 19.4856 4.77678 18.0915C3.63605 16.6972 2.90884 15.011 2.67912 13.2243C2.44943 11.4376 2.72601 9.62154 3.47697 7.98407C4.22791 6.34698 5.42357 4.95316 6.92717 3.96161C8.43106 2.97009 10.184 2.41986 11.9848 2.37469ZM10.3315 3.83954C9.36885 4.06311 8.44818 4.45572 7.61564 5.00458C6.30714 5.86738 5.26716 7.08093 4.61369 8.50555C3.96026 9.93036 3.71949 11.5104 3.91936 13.0651C4.11929 14.6198 4.75198 16.0873 5.74455 17.3005C6.73713 18.5134 8.05041 19.4237 9.53459 19.9274C11.0188 20.4311 12.6152 20.5084 14.141 20.1501C15.6667 19.7916 17.0617 19.0118 18.1664 17.9001C18.8697 17.1923 19.4373 16.3674 19.8471 15.4675C18.5779 16.0771 17.155 16.3354 15.7309 16.1931C13.6907 15.989 11.8154 14.9821 10.517 13.3952C9.21857 11.8082 8.60302 9.77046 8.80705 7.73016C8.94951 6.30642 9.48302 4.96272 10.3315 3.83954Z" fill="currentColor"/>
</svg>
