<svg width="40" height="40" viewBox="0 0 40 40" fill="none" xmlns="http://www.w3.org/2000/svg">
<path d="M0 20C0 8.95431 8.95431 0 20 0C31.0457 0 40 8.95431 40 20C40 31.0457 31.0457 40 20 40C8.95431 40 0 31.0457 0 20Z" fill="#FFF7EA"/>
<path fill-rule="evenodd" clip-rule="evenodd" d="M20.0003 11.375C20.2092 11.375 20.4049 11.4796 20.5209 11.6533L25.475 19.0859L31.6097 14.1787C31.8148 14.0147 32.1012 13.9964 32.3255 14.1328C32.5497 14.2694 32.665 14.5316 32.6136 14.7891L29.9466 28.123C29.888 28.4149 29.6311 28.625 29.3334 28.625H10.6673C10.3697 28.6248 10.1126 28.4148 10.0541 28.123L7.38707 14.7891C7.33575 14.5318 7.45117 14.2694 7.67515 14.1328C7.89947 13.9963 8.18586 14.0148 8.39097 14.1787L14.5248 19.0859L19.4798 11.6533C19.5957 11.4796 19.7915 11.3751 20.0003 11.375ZM15.1869 20.3467C15.0897 20.4922 14.936 20.5903 14.763 20.6172C14.5901 20.6439 14.4134 20.5975 14.2767 20.4883L8.94957 16.2266L11.1791 27.375H28.8216L31.0502 16.2266L25.724 20.4883C25.5873 20.5975 25.4106 20.644 25.2377 20.6172C25.0648 20.5902 24.9109 20.4922 24.8138 20.3467L20.0003 13.127L15.1869 20.3467Z" fill="#F57C00"/>
</svg>
