<svg width="542" height="207" viewBox="0 0 542 207" fill="none" xmlns="http://www.w3.org/2000/svg">
<g opacity="0.2">
<rect width="23" height="23" transform="translate(242.4 92)" fill="#E7E9EA"/>
<rect width="23" height="23" transform="translate(242.4 138)" fill="#E7E9EA"/>
<rect width="23" height="23" transform="translate(173.4 92)" fill="#E7E9EA"/>
<rect width="23" height="23" transform="translate(50.4004 48)" fill="#E7E9EA"/>
<rect width="23" height="23" transform="translate(334.4 115)" fill="#E7E9EA"/>
<rect width="23" height="23" transform="translate(288.4 161)" fill="#E7E9EA"/>
<rect width="23" height="23" transform="translate(0.400391 160)" fill="white"/>
<rect width="23" height="23" transform="translate(380.4 68)" fill="#E7E9EA"/>
<rect width="23" height="23" transform="translate(288.4 46)" fill="#E7E9EA"/>
<rect width="23" height="23" transform="translate(219.4 115)" fill="#E7E9EA"/>
<rect width="23" height="23" transform="translate(380.4 137)" fill="#E7E9EA"/>
<rect width="23" height="23" transform="translate(518.4 137)" fill="#E7E9EA"/>
<rect width="23" height="23" transform="translate(357.4 23)" fill="#E7E9EA"/>
<rect width="23" height="23" transform="translate(403.4 45)" fill="#E7E9EA"/>
<rect width="23" height="23" transform="translate(472.4 115)" fill="#E7E9EA"/>
<rect width="23" height="23" transform="translate(472.4 46)" fill="#E7E9EA"/>
<rect width="23" height="23" transform="translate(518.4 46)" fill="#E7E9EA"/>
<rect width="23" height="23" transform="translate(334.4 69)" fill="#E7E9EA"/>
<rect width="23" height="23" transform="translate(196.4 115)" fill="white"/>
<rect width="23" height="23" transform="translate(104.4 115)" fill="#E7E9EA"/>
<rect width="23" height="23" transform="translate(81.4004 137)" fill="#E7E9EA"/>
<rect width="23" height="23" transform="translate(357.4 138)" fill="#E7E9EA"/>
<rect width="23" height="23" transform="translate(173.4 69)" fill="#E7E9EA"/>
<rect width="23" height="23" transform="translate(196.4 23)" fill="#E7E9EA"/>
<rect width="23" height="23" transform="translate(23.4004 160)" fill="white"/>
<rect width="23" height="23" transform="translate(23.4004 137)" fill="white"/>
<rect width="23" height="23" transform="translate(472.4 138)" fill="white"/>
<rect width="23" height="23" transform="translate(288.4 92)" fill="white"/>
<rect width="23" height="23" transform="translate(288.4 138)" fill="white"/>
<rect width="23" height="23" transform="translate(219.4 92)" fill="#E7E9EA"/>
<rect width="23" height="23" transform="translate(265.4 115)" fill="#E7E9EA"/>
<rect width="23" height="23" transform="translate(150.4 114)" fill="#E7E9EA"/>
<rect width="23" height="23" transform="translate(334.4 161)" fill="#E7E9EA"/>
<rect width="23" height="23" transform="translate(311.4 184)" fill="#E7E9EA"/>
<rect width="23" height="23" transform="translate(403.4 160)" fill="#E7E9EA"/>
<rect width="23" height="23" transform="translate(449.4 161)" fill="#E7E9EA"/>
<rect width="23" height="23" transform="translate(495.4 23)" fill="#E7E9EA"/>
<rect width="23" height="23" transform="translate(242.4 115)" fill="#E7E9EA"/>
<rect width="23" height="23" transform="translate(150.4 48)" fill="#E7E9EA"/>
<rect width="23" height="23" transform="translate(311.4 92)" fill="#E7E9EA"/>
<rect width="23" height="23" transform="translate(357.4 91)" fill="#E7E9EA"/>
<rect width="23" height="23" transform="translate(311.4 69)" fill="#E7E9EA"/>
<rect width="23" height="23" transform="translate(127.4 2)" fill="#E7E9EA"/>
<rect width="23" height="23" transform="translate(173.4 137)" fill="#E7E9EA"/>
<rect width="23" height="23" transform="translate(311.4 23)" fill="#E7E9EA"/>
<rect width="23" height="23" transform="translate(426.4 69)" fill="#E7E9EA"/>
<rect width="23" height="23" transform="translate(495.4 115)" fill="#E7E9EA"/>
<rect width="23" height="23" transform="translate(403.4 91)" fill="#E7E9EA"/>
<rect width="23" height="23" transform="translate(357.4 161)" fill="#E7E9EA"/>
<rect width="23" height="23" transform="translate(288.4)" fill="#E7E9EA"/>
<rect width="23" height="23" transform="translate(334.4 46)" fill="#E7E9EA"/>
<rect width="23" height="23" transform="translate(311.4 138)" fill="#E7E9EA"/>
<rect width="23" height="23" transform="translate(150.4 183)" fill="#E7E9EA"/>
<rect width="23" height="23" transform="translate(173.4 160)" fill="white"/>
<rect width="23" height="23" transform="translate(150.4 137)" fill="#E7E9EA"/>
<rect width="23" height="23" transform="translate(104.4 46)" fill="#E7E9EA"/>
<rect width="23" height="23" transform="translate(150.4 92)" fill="#E7E9EA"/>
<rect width="23" height="23" transform="translate(127 68)" fill="#E7E9EA"/>
<rect width="23" height="23" transform="translate(81 114)" fill="#E7E9EA"/>
<rect width="23" height="23" transform="translate(104 160)" fill="#E7E9EA"/>
<rect width="23" height="23" transform="translate(27 71)" fill="#E7E9EA"/>
<rect width="23" height="23" transform="translate(449 92)" fill="#E7E9EA"/>
<rect width="23" height="23" transform="translate(27.4004 25)" fill="#E7E9EA"/>
</g>
</svg>
