<svg width="24" height="24" viewBox="0 0 24 24" fill="none" xmlns="http://www.w3.org/2000/svg">
<path d="M21.8139 2.18633C21.902 2.27463 21.9623 2.38687 21.9872 2.50912C22.0121 2.63138 22.0005 2.75826 21.9539 2.874L14.5438 21.3988C14.4785 21.5619 14.3694 21.7039 14.2286 21.8091C14.0878 21.9142 13.9208 21.9785 13.7458 21.9948C13.5708 22.0112 13.3948 21.9789 13.2369 21.9016C13.0791 21.8243 12.9457 21.705 12.8513 21.5567L8.80434 15.1959L2.44348 11.1488C2.29489 11.0546 2.17523 10.9211 2.0977 10.7632C2.02017 10.6052 1.98779 10.4289 2.00412 10.2537C2.02046 10.0785 2.08488 9.91119 2.19027 9.77028C2.29567 9.62938 2.43794 9.52032 2.60139 9.45516L21.1262 2.04753C21.2419 2.00094 21.3688 1.98937 21.4911 2.01428C21.6133 2.03918 21.7256 2.09945 21.8139 2.18761V2.18633ZM10.0752 14.824L13.5912 20.3482L19.6184 5.28081L10.0752 14.824ZM18.7181 4.38048L3.65071 10.4077L9.17619 13.9224L18.7181 4.38048Z" fill="currentColor"/>
</svg>
