<svg width="16" height="16" viewBox="0 0 16 16" fill="none" xmlns="http://www.w3.org/2000/svg">
<path fill-rule="evenodd" clip-rule="evenodd" d="M8.00048 6.8606C8.62958 6.86077 9.13923 7.37137 9.1394 8.00048C9.13923 8.62959 8.62959 9.13923 8.00048 9.1394C7.37122 9.1394 6.86077 8.62969 6.8606 8.00048C6.86078 7.37127 7.37122 6.8606 8.00048 6.8606ZM8.00048 7.83736C7.91068 7.83736 7.83754 7.91072 7.83736 8.00048C7.83754 8.09024 7.91067 8.16264 8.00048 8.16264C8.09013 8.16246 8.16246 8.09013 8.16264 8.00048C8.16246 7.91082 8.09013 7.83754 8.00048 7.83736Z" fill="#6D797D"/>
<path fill-rule="evenodd" clip-rule="evenodd" d="M8.00048 1C11.8663 1.00017 14.9998 4.13465 15 8.00048C14.9998 11.8663 11.8663 14.9998 8.00048 15C4.1345 15 1.00017 11.8664 1 8.00048C1.00018 4.13455 4.13451 1 8.00048 1ZM8.00048 1.97677C4.67396 1.97677 1.97694 4.674 1.97677 8.00048C1.97694 11.327 4.67396 14.0232 8.00048 14.0232C11.3269 14.0231 14.0231 11.3269 14.0232 8.00048C14.0231 4.67411 11.3268 1.97694 8.00048 1.97677Z" fill="#6D797D"/>
</svg>
