<svg width="24" height="24" viewBox="0 0 24 24" fill="none" xmlns="http://www.w3.org/2000/svg">
<g clip-path="url(#clip0_6861_38365)">
<path d="M12 20.375C12.3452 20.375 12.625 20.6548 12.625 21V23C12.625 23.3452 12.3452 23.625 12 23.625C11.6548 23.625 11.375 23.3452 11.375 23V21C11.375 20.6548 11.6548 20.375 12 20.375Z" fill="currentColor"/>
<path d="M5.1582 17.958C5.40229 17.714 5.79795 17.714 6.04199 17.958C6.28604 18.2021 6.28597 18.5977 6.04199 18.8418L4.6416 20.2422C4.3975 20.486 4.00179 20.4862 3.75781 20.2422C3.51383 19.9982 3.51403 19.6025 3.75781 19.3584L5.1582 17.958Z" fill="currentColor"/>
<path d="M17.958 17.958C18.2021 17.714 18.5977 17.714 18.8418 17.958L20.2422 19.3584C20.486 19.6025 20.4862 19.9982 20.2422 20.2422C19.9982 20.4862 19.6025 20.486 19.3584 20.2422L17.958 18.8418C17.714 18.5977 17.714 18.2021 17.958 17.958Z" fill="currentColor"/>
<path fill-rule="evenodd" clip-rule="evenodd" d="M12 6.375C15.1066 6.375 17.625 8.8934 17.625 12C17.625 15.1066 15.1066 17.625 12 17.625C8.8934 17.625 6.375 15.1066 6.375 12C6.375 8.8934 8.8934 6.375 12 6.375ZM12 7.625C9.58375 7.625 7.625 9.58375 7.625 12C7.625 14.4162 9.58375 16.375 12 16.375C14.4162 16.375 16.375 14.4162 16.375 12C16.375 9.58375 14.4162 7.625 12 7.625Z" fill="currentColor"/>
<path d="M3 11.375C3.34518 11.375 3.625 11.6548 3.625 12C3.625 12.3452 3.34518 12.625 3 12.625H1C0.654822 12.625 0.375 12.3452 0.375 12C0.375 11.6548 0.654822 11.375 1 11.375H3Z" fill="currentColor"/>
<path d="M23 11.375C23.3452 11.375 23.625 11.6548 23.625 12C23.625 12.3452 23.3452 12.625 23 12.625H21C20.6548 12.625 20.375 12.3452 20.375 12C20.375 11.6548 20.6548 11.375 21 11.375H23Z" fill="currentColor"/>
<path d="M3.75781 3.75781C4.00179 3.51383 4.3975 3.51403 4.6416 3.75781L6.04199 5.1582C6.28597 5.40229 6.28604 5.79795 6.04199 6.04199C5.79795 6.28604 5.40229 6.28597 5.1582 6.04199L3.75781 4.6416C3.51403 4.3975 3.51383 4.00179 3.75781 3.75781Z" fill="currentColor"/>
<path d="M19.3584 3.75781C19.6025 3.51403 19.9982 3.51383 20.2422 3.75781C20.4862 4.00179 20.486 4.3975 20.2422 4.6416L18.8418 6.04199C18.5977 6.28597 18.2021 6.28604 17.958 6.04199C17.714 5.79795 17.714 5.40229 17.958 5.1582L19.3584 3.75781Z" fill="currentColor"/>
<path d="M12 0.375C12.3452 0.375 12.625 0.654822 12.625 1V3C12.625 3.34518 12.3452 3.625 12 3.625C11.6548 3.625 11.375 3.34518 11.375 3V1C11.375 0.654822 11.6548 0.375 12 0.375Z" fill="currentColor"/>
</g>
<defs>
<clipPath id="clip0_6861_38365">
<rect width="24" height="24" fill="white"/>
</clipPath>
</defs>
</svg>
