<svg width="24" height="24" viewBox="0 0 24 24" fill="none" xmlns="http://www.w3.org/2000/svg">
<path fill-rule="evenodd" clip-rule="evenodd" d="M2 12C2 6.47721 6.47721 2 12 2C17.5228 2 22 6.47721 22 12C22 17.5228 17.5228 22 12 22C6.47721 22 2 17.5228 2 12ZM12 6.65116C12.185 6.65116 12.3625 6.72467 12.4933 6.85551C12.6242 6.98635 12.6977 7.1638 12.6977 7.34884V12.9302C12.6977 13.1153 12.6242 13.2927 12.4933 13.4236C12.3625 13.5544 12.185 13.6279 12 13.6279C11.815 13.6279 11.6375 13.5544 11.5067 13.4236C11.3758 13.2927 11.3023 13.1153 11.3023 12.9302V7.34884C11.3023 7.1638 11.3758 6.98635 11.5067 6.85551C11.6375 6.72467 11.815 6.65116 12 6.65116ZM12.5284 17.1163C12.6481 16.9781 12.7088 16.7985 12.6975 16.6161C12.6862 16.4336 12.6037 16.2629 12.4677 16.1406C12.3318 16.0184 12.1534 15.9544 11.9707 15.9623C11.7881 15.9703 11.6159 16.0496 11.4912 16.1833L11.4819 16.1935C11.3625 16.3316 11.3021 16.5109 11.3135 16.6931C11.3248 16.8752 11.4071 17.0457 11.5427 17.1679C11.6783 17.29 11.8563 17.3542 12.0387 17.3467C12.221 17.3391 12.3931 17.2604 12.5181 17.1274L12.5284 17.1163Z" fill="currentColor"/>
</svg>
