<svg width="24" height="24" viewBox="0 0 24 24" fill="none" xmlns="http://www.w3.org/2000/svg">
<path d="M22 12C22 14.6522 20.9464 17.1957 19.0711 19.0711C17.1957 20.9464 14.6522 22 12 22C9.34784 22 6.8043 20.9464 4.92893 19.0711C3.05357 17.1957 2 14.6522 2 12C2 9.34784 3.05357 6.8043 4.92893 4.92893C6.8043 3.05357 9.34784 2 12 2C14.6522 2 17.1957 3.05357 19.0711 4.92893C20.9464 6.8043 22 9.34784 22 12ZM8.6925 7.8075C8.57514 7.69014 8.41597 7.62421 8.25 7.62421C8.08403 7.62421 7.92486 7.69014 7.8075 7.8075C7.69014 7.92486 7.62421 8.08403 7.62421 8.25C7.62421 8.41597 7.69014 8.57514 7.8075 8.6925L11.1163 12L7.8075 15.3075C7.74939 15.3656 7.70329 15.4346 7.67185 15.5105C7.6404 15.5864 7.62421 15.6678 7.62421 15.75C7.62421 15.8322 7.6404 15.9136 7.67185 15.9895C7.70329 16.0654 7.74939 16.1344 7.8075 16.1925C7.92486 16.3099 8.08403 16.3758 8.25 16.3758C8.33218 16.3758 8.41356 16.3596 8.48948 16.3282C8.5654 16.2967 8.63439 16.2506 8.6925 16.1925L12 12.8837L15.3075 16.1925C15.3656 16.2506 15.4346 16.2967 15.5105 16.3282C15.5864 16.3596 15.6678 16.3758 15.75 16.3758C15.8322 16.3758 15.9136 16.3596 15.9895 16.3282C16.0654 16.2967 16.1344 16.2506 16.1925 16.1925C16.2506 16.1344 16.2967 16.0654 16.3282 15.9895C16.3596 15.9136 16.3758 15.8322 16.3758 15.75C16.3758 15.6678 16.3596 15.5864 16.3282 15.5105C16.2967 15.4346 16.2506 15.3656 16.1925 15.3075L12.8837 12L16.1925 8.6925C16.2506 8.63439 16.2967 8.5654 16.3282 8.48948C16.3596 8.41356 16.3758 8.33218 16.3758 8.25C16.3758 8.16782 16.3596 8.08644 16.3282 8.01052C16.2967 7.9346 16.2506 7.86561 16.1925 7.8075C16.1344 7.74939 16.0654 7.70329 15.9895 7.67185C15.9136 7.6404 15.8322 7.62421 15.75 7.62421C15.6678 7.62421 15.5864 7.6404 15.5105 7.67185C15.4346 7.70329 15.3656 7.74939 15.3075 7.8075L12 11.1163L8.6925 7.8075Z" fill="currentColor"/>
</svg>
