<svg width="36" height="36" viewBox="0 0 36 36" fill="none" xmlns="http://www.w3.org/2000/svg">
<path d="M18 30C19.578 30 20.8571 28.6569 20.8571 27H15.1429C15.1429 28.6569 16.422 30 18 30Z" fill="black"/>
<path d="M18 8.87737L16.8612 9.11888C14.2507 9.67243 12.2857 12.0969 12.2857 15C12.2857 15.9417 12.0938 18.2959 11.6302 20.6132C11.4001 21.7636 11.0922 22.9614 10.683 24H25.317C24.9078 22.9614 24.5999 21.7636 24.3698 20.6132C23.9062 18.2959 23.7143 15.9417 23.7143 15C23.7143 12.0969 21.7493 9.6724 19.1389 9.11887L18 8.87737ZM26.8847 24C27.2037 24.6711 27.5735 25.2015 28 25.5H8C8.42647 25.2015 8.79635 24.6711 9.11529 24C10.3989 21.2991 10.8572 16.3187 10.8572 15C10.8572 11.369 13.3146 8.34067 16.5783 7.64856C16.5738 7.59969 16.5714 7.55013 16.5714 7.5C16.5714 6.67157 17.211 6 18 6C18.789 6 19.4286 6.67157 19.4286 7.5C19.4286 7.55013 19.4262 7.59968 19.4217 7.64855C22.6855 8.34063 25.1429 11.369 25.1429 15C25.1429 16.3187 25.6011 21.2991 26.8847 24Z" fill="black"/>
</svg>
