<svg width="36" height="36" viewBox="0 0 36 36" fill="none" xmlns="http://www.w3.org/2000/svg">
<path d="M10.125 4C10.6082 4 11 4.39175 11 4.875V5.75H25V4.875C25 4.39175 25.3918 4 25.875 4C26.3582 4 26.75 4.39175 26.75 4.875V5.75H28.5C30.433 5.75 32 7.317 32 9.25V28.5C32 30.433 30.433 32 28.5 32H7.5C5.567 32 4 30.433 4 28.5V9.25C4 7.317 5.567 5.75 7.5 5.75H9.25V4.875C9.25 4.39175 9.64175 4 10.125 4ZM5.75 11V28.5C5.75 29.4665 6.5335 30.25 7.5 30.25H28.5C29.4665 30.25 30.25 29.4665 30.25 28.5V11H5.75Z" fill="black"/>
</svg>
