<svg width="36" height="36" viewBox="0 0 36 36" fill="none" xmlns="http://www.w3.org/2000/svg">
<path d="M25.1933 12.4937C25.5578 12.152 25.5578 11.598 25.1933 11.2563C24.8288 10.9146 24.2379 10.9146 23.8734 11.2563L11.4667 22.8876L5.5933 17.3813C5.22881 17.0396 4.63786 17.0396 4.27337 17.3813C3.90888 17.723 3.90888 18.277 4.27337 18.6187L10.8067 24.7437C10.9817 24.9078 11.2191 25 11.4667 25C11.7142 25 11.9516 24.9078 12.1266 24.7437L25.1933 12.4937Z" fill="black"/>
<path d="M17.34 24.7437L15.6667 23.1749L16.9866 21.9375L18 22.8876L30.4067 11.2563C30.7712 10.9146 31.3621 10.9146 31.7266 11.2563C32.0911 11.598 32.0911 12.152 31.7266 12.4937L18.66 24.7437C18.4849 24.9078 18.2475 25 18 25C17.7525 25 17.5151 24.9078 17.34 24.7437Z" fill="black"/>
<path d="M12.1266 17.3813L13.8 18.9501L12.4801 20.1875L10.8067 18.6187C10.4422 18.277 10.4422 17.723 10.8067 17.3813C11.1712 17.0396 11.7621 17.0396 12.1266 17.3813Z" fill="black"/>
</svg>
