<svg width="36" height="36" viewBox="0 0 36 36" fill="none" xmlns="http://www.w3.org/2000/svg">
<path d="M7.5 4C5.567 4 4 5.567 4 7.5V28.5C4 30.433 5.567 32 7.5 32H28.5C30.433 32 32 30.433 32 28.5V7.5C32 5.567 30.433 4 28.5 4H7.5ZM25.0531 12.6969C25.5593 13.2032 25.5656 14.0202 25.0717 14.5341L18.0853 23.267C18.0753 23.2796 18.0645 23.2917 18.0531 23.3031C17.5405 23.8156 16.7095 23.8156 16.1969 23.3031L11.5656 18.6718C11.0531 18.1592 11.0531 17.3282 11.5656 16.8156C12.0782 16.3031 12.9092 16.3031 13.4218 16.8156L17.0854 20.4793L23.1621 12.7362C23.1729 12.7224 23.1845 12.7093 23.1969 12.6969C23.7095 12.1844 24.5405 12.1844 25.0531 12.6969Z" fill="black"/>
</svg>
