<svg width="36" height="36" viewBox="0 0 36 36" fill="none" xmlns="http://www.w3.org/2000/svg">
<path d="M27.3781 24.36C30.3573 21.615 32 18.5 32 18.5C32 18.5 26.75 8.54494 18 8.54494C16.2231 8.54494 14.5905 8.95549 13.1169 9.60983L14.466 11.0051C15.5672 10.596 16.7477 10.355 18 10.355C21.7089 10.355 24.7882 12.4694 27.0438 14.8023C28.1565 15.9531 29.0212 17.1098 29.6073 17.9795C29.7346 18.1684 29.8482 18.3429 29.9478 18.5C29.8482 18.6571 29.7346 18.8316 29.6073 19.0205C29.0212 19.8902 28.1565 21.0469 27.0438 22.1977C26.7554 22.496 26.4535 22.7907 26.1385 23.078L27.3781 24.36Z" fill="black"/>
<path d="M23.7706 20.6288C24 19.9635 24.125 19.2468 24.125 18.5C24.125 15.0013 21.3827 12.165 18 12.165C17.2779 12.165 16.585 12.2942 15.9417 12.5315L17.3808 14.0199C17.5831 13.9903 17.7898 13.975 18 13.975C20.4162 13.975 22.375 16.0009 22.375 18.5C22.375 18.7174 22.3602 18.9312 22.3315 19.1404L23.7706 20.6288Z" fill="black"/>
<path d="M18.6192 22.9801L20.0583 24.4685C19.415 24.7058 18.7221 24.835 18 24.835C14.6173 24.835 11.875 21.9987 11.875 18.5C11.875 17.7531 12 17.0365 12.2294 16.3711L13.6685 17.8595C13.6398 18.0688 13.625 18.2826 13.625 18.5C13.625 20.9991 15.5838 23.025 18 23.025C18.2102 23.025 18.4169 23.0097 18.6192 22.9801Z" fill="black"/>
<path d="M9.86152 13.922C9.54654 14.2092 9.24463 14.504 8.95619 14.8023C7.84354 15.9531 6.97878 17.1098 6.39273 17.9795C6.26545 18.1684 6.15185 18.3429 6.05222 18.5C6.15185 18.6571 6.26545 18.8316 6.39273 19.0205C6.97878 19.8902 7.84354 21.0469 8.95619 22.1977C11.2118 24.5306 14.2911 26.645 18 26.645C19.2523 26.645 20.4328 26.404 21.5341 25.9949L22.8831 27.3901C21.4095 28.0445 19.7769 28.4551 18 28.4551C9.25 28.4551 4 18.5 4 18.5C4 18.5 5.64275 15.385 8.62195 12.6399L9.86152 13.922Z" fill="black"/>
<path d="M27.8813 30L6.88128 8.27987L8.11872 7L29.1187 28.7201L27.8813 30Z" fill="black"/>
</svg>
