<svg width="36" height="36" viewBox="0 0 36 36" fill="none" xmlns="http://www.w3.org/2000/svg">
<path d="M32 18C32 18 26.75 9 18 9C9.25 9 4 18 4 18C4 18 9.25 27 18 27C26.75 27 32 18 32 18ZM6.05222 18C6.15185 17.858 6.26545 17.7002 6.39273 17.5294C6.97878 16.7432 7.84354 15.6975 8.95619 14.6571C11.2118 12.5479 14.2911 10.6364 18 10.6364C21.7089 10.6364 24.7882 12.5479 27.0438 14.6571C28.1565 15.6975 29.0212 16.7432 29.6073 17.5294C29.7346 17.7002 29.8482 17.858 29.9478 18C29.8482 18.142 29.7346 18.2998 29.6073 18.4706C29.0212 19.2568 28.1565 20.3025 27.0438 21.3429C24.7882 23.4521 21.7089 25.3636 18 25.3636C14.2911 25.3636 11.2118 23.4521 8.95619 21.3429C7.84354 20.3025 6.97878 19.2568 6.39273 18.4706C6.26545 18.2998 6.15185 18.142 6.05222 18Z" fill="black"/>
<path d="M18 13.9091C15.5838 13.9091 13.625 15.7407 13.625 18C13.625 20.2593 15.5838 22.0909 18 22.0909C20.4162 22.0909 22.375 20.2593 22.375 18C22.375 15.7407 20.4162 13.9091 18 13.9091ZM11.875 18C11.875 14.8369 14.6173 12.2727 18 12.2727C21.3827 12.2727 24.125 14.8369 24.125 18C24.125 21.1631 21.3827 23.7273 18 23.7273C14.6173 23.7273 11.875 21.1631 11.875 18Z" fill="black"/>
</svg>
