<svg width="36" height="36" viewBox="0 0 36 36" fill="none" xmlns="http://www.w3.org/2000/svg">
<path d="M13.3333 23.1429C13.3333 22.6695 13.8557 22.2857 14.5 22.2857H21.5C22.1443 22.2857 22.6667 22.6695 22.6667 23.1429C22.6667 23.6162 22.1443 24 21.5 24H14.5C13.8557 24 13.3333 23.6162 13.3333 23.1429Z" fill="black"/>
<path d="M8.66667 18C8.66667 17.5266 9.189 17.1429 9.83333 17.1429H26.1667C26.811 17.1429 27.3333 17.5266 27.3333 18C27.3333 18.4734 26.811 18.8571 26.1667 18.8571H9.83333C9.189 18.8571 8.66667 18.4734 8.66667 18Z" fill="black"/>
<path d="M4 12.8571C4 12.3838 4.52233 12 5.16667 12H30.8333C31.4777 12 32 12.3838 32 12.8571C32 13.3305 31.4777 13.7143 30.8333 13.7143H5.16667C4.52233 13.7143 4 13.3305 4 12.8571Z" fill="black"/>
</svg>
