<svg width="36" height="36" viewBox="0 0 36 36" fill="none" xmlns="http://www.w3.org/2000/svg">
<path d="M10.6086 14.7205L7.52212 17.807C4.88608 20.443 4.88608 24.7169 7.52212 27.3529C10.1582 29.989 14.432 29.989 17.0681 27.3529L21.182 23.239C23.8181 20.6029 23.8181 16.3291 21.182 13.693C20.6242 13.1352 19.993 12.6954 19.3194 12.3736L18 13.693C17.8628 13.8302 17.7471 13.9807 17.6527 14.1404C18.3624 14.3438 19.032 14.725 19.591 15.284C21.3484 17.0414 21.3484 19.8906 19.591 21.648L15.4771 25.7619C13.7197 27.5193 10.8705 27.5193 9.11311 25.7619C7.35575 24.0046 7.35575 21.1553 9.11311 19.398L10.8965 17.6146C10.644 16.6693 10.5481 15.691 10.6086 14.7205Z" fill="black"/>
<path d="M14.8181 10.511C12.182 13.1471 12.182 17.4209 14.8181 20.057C15.3759 20.6148 16.0071 21.0546 16.6806 21.3764L18.4257 19.6313C17.687 19.434 16.9886 19.0456 16.409 18.466C14.6517 16.7086 14.6517 13.8594 16.409 12.102L20.523 7.98807C22.2804 6.23071 25.1296 6.23071 26.887 7.98807C28.6443 9.74543 28.6443 12.5947 26.887 14.352L25.1036 16.1354C25.356 17.0807 25.452 18.059 25.3915 19.0295L28.478 15.943C31.114 13.307 31.114 9.03312 28.478 6.39708C25.8419 3.76104 21.5681 3.76104 18.932 6.39708L14.8181 10.511Z" fill="black"/>
</svg>
