<svg width="36" height="36" viewBox="0 0 36 36" fill="none" xmlns="http://www.w3.org/2000/svg">
<path fill-rule="evenodd" clip-rule="evenodd" d="M31.6797 4.19833C31.8825 4.36453 32 4.61286 32 4.87501V29.375C32 29.7921 31.7056 30.1512 31.2966 30.233L22.5466 31.983C22.4333 32.0057 22.3167 32.0057 22.2034 31.983L13.625 30.2673L5.0466 31.983C4.78955 32.0344 4.52299 31.9679 4.32026 31.8017C4.11753 31.6355 4 31.3871 4 31.125V6.62501C4 6.20791 4.2944 5.8488 4.7034 5.767L13.4534 4.017C13.5667 3.99434 13.6833 3.99434 13.7966 4.017L22.375 5.73268L30.9534 4.017C31.2105 3.96559 31.477 4.03214 31.6797 4.19833ZM21.5 7.34233L14.5 5.94233V28.6577L21.5 30.0577V7.34233ZM23.25 30.0577L30.25 28.6577V5.94233L23.25 7.34233V30.0577ZM12.75 28.6577V5.94233L5.75 7.34233V30.0577L12.75 28.6577Z" fill="black"/>
</svg>
