<svg width="36" height="36" viewBox="0 0 36 36" fill="none" xmlns="http://www.w3.org/2000/svg">
<path d="M24.5488 22.1018C25.9326 20.2178 26.75 17.8918 26.75 15.375C26.75 9.09276 21.6572 4 15.375 4C9.09276 4 4 9.09276 4 15.375C4 21.6572 9.09276 26.75 15.375 26.75C17.8925 26.75 20.219 25.9322 22.1033 24.5477C22.1549 24.6176 22.2109 24.6858 22.2743 24.7491L29.0126 31.4874C29.696 32.1709 30.804 32.1709 31.4874 31.4874C32.1709 30.804 32.1709 29.696 31.4874 29.0126L24.7491 22.2743C24.6858 22.2109 24.6188 22.1534 24.5488 22.1018ZM25 15.375C25 20.6907 20.6907 25 15.375 25C10.0593 25 5.75 20.6907 5.75 15.375C5.75 10.0593 10.0593 5.75 15.375 5.75C20.6907 5.75 25 10.0593 25 15.375Z" fill="black"/>
</svg>
