<svg width="36" height="36" viewBox="0 0 36 36" fill="none" xmlns="http://www.w3.org/2000/svg">
<path d="M15.375 5.75H20.625C21.1083 5.75 21.5 6.14175 21.5 6.625V8.375H14.5V6.625C14.5 6.14175 14.8918 5.75 15.375 5.75ZM23.25 8.375V6.625C23.25 5.17525 22.0747 4 20.625 4H15.375C13.9253 4 12.75 5.17525 12.75 6.625V8.375H8.3849C8.37895 8.37494 8.37299 8.37494 8.36702 8.375H6.625C6.14175 8.375 5.75 8.76675 5.75 9.25C5.75 9.73325 6.14175 10.125 6.625 10.125H7.5672L9.05953 28.7791C9.20505 30.5981 10.7236 32 12.5484 32H23.4516C25.2764 32 26.7949 30.5981 26.9405 28.7791L28.4328 10.125H29.375C29.8582 10.125 30.25 9.73325 30.25 9.25C30.25 8.76675 29.8582 8.375 29.375 8.375H27.633C27.627 8.37494 27.621 8.37494 27.6151 8.375H23.25ZM26.6772 10.125L25.196 28.6396C25.1233 29.549 24.364 30.25 23.4516 30.25H12.5484C11.636 30.25 10.8767 29.549 10.804 28.6396L9.3228 10.125H26.6772Z" fill="black"/>
</svg>
