<svg width="36" height="36" viewBox="0 0 36 36" fill="none" xmlns="http://www.w3.org/2000/svg">
<path d="M9.57143 4H27.4286C29.401 4 31 5.567 31 7.5V12.75C31 14.683 29.401 16.25 27.4286 16.25H9.57143C7.59898 16.25 6 14.683 6 12.75V7.5C6 5.567 7.59898 4 9.57143 4ZM9.57143 5.75C8.58521 5.75 7.78571 6.5335 7.78571 7.5V12.75C7.78571 13.7165 8.58521 14.5 9.57143 14.5H27.4286C28.4148 14.5 29.2143 13.7165 29.2143 12.75V7.5C29.2143 6.5335 28.4148 5.75 27.4286 5.75H9.57143Z" fill="black"/>
<path d="M9.57143 19.75H27.4286C29.401 19.75 31 21.317 31 23.25V28.5C31 30.433 29.401 32 27.4286 32H9.57143C7.59898 32 6 30.433 6 28.5V23.25C6 21.317 7.59898 19.75 9.57143 19.75ZM9.57143 21.5C8.58521 21.5 7.78571 22.2835 7.78571 23.25V28.5C7.78571 29.4665 8.58521 30.25 9.57143 30.25H27.4286C28.4148 30.25 29.2143 29.4665 29.2143 28.5V23.25C29.2143 22.2835 28.4148 21.5 27.4286 21.5H9.57143Z" fill="black"/>
</svg>
