<svg width="24" height="24" viewBox="0 0 24 24" fill="none" xmlns="http://www.w3.org/2000/svg">
<path d="M8.83287 14.5386C9.179 14.5386 9.45963 14.8195 9.45983 15.1656V20.151C9.45956 20.497 9.17896 20.778 8.83287 20.778C8.48703 20.7777 8.20618 20.4969 8.2059 20.151V16.6792L3.07018 21.8165C2.82538 22.0612 2.42845 22.0611 2.18361 21.8165C1.93878 21.5716 1.93881 21.1747 2.18361 20.9298L7.31933 15.7926H3.84899C3.50285 15.7925 3.22202 15.5118 3.22202 15.1656C3.22223 14.8196 3.50298 14.5388 3.84899 14.5386H8.83287Z" fill="black"/>
<path d="M20.9289 2.18364C21.1737 1.93879 21.5718 1.93879 21.8167 2.18364C22.061 2.42846 22.0612 2.82551 21.8167 3.07025L16.6797 8.20623H20.1501C20.4962 8.20623 20.7768 8.48716 20.777 8.83323C20.777 9.17951 20.4963 9.46022 20.1501 9.46022H15.1662C14.8199 9.46022 14.5392 9.17951 14.5392 8.83323V3.8491C14.5393 3.50288 14.82 3.2221 15.1662 3.2221C15.5124 3.22213 15.7931 3.5029 15.7932 3.8491V7.31962L20.9289 2.18364Z" fill="black"/>
</svg>
