<svg width="24" height="24" viewBox="0 0 24 24" fill="none" xmlns="http://www.w3.org/2000/svg">
<path d="M8.39074 14.7232C8.63561 14.4786 9.03255 14.4784 9.27729 14.7232C9.52176 14.9679 9.52176 15.3649 9.27729 15.6096L4.14045 20.7462H7.61073C7.95698 20.7462 8.23768 21.0269 8.23768 21.3731C8.23737 21.7191 7.95679 22 7.61073 22H2.62695C2.28088 22 2.0003 21.7191 2 21.3731V16.3884C2.00017 16.0423 2.2808 15.7615 2.62695 15.7615C2.9731 15.7615 3.25373 16.0423 3.2539 16.3884V19.8585L8.39074 14.7232Z" fill="black"/>
<path d="M21.3718 2C21.7179 2 21.9997 2.28094 22 2.62691L21.9988 7.61161C21.9986 7.95769 21.718 8.23852 21.3718 8.23852C21.026 8.23819 20.745 7.95749 20.7449 7.61161V4.14155L15.6093 9.27685C15.3644 9.52166 14.9676 9.52165 14.7227 9.27685C14.4779 9.03202 14.4779 8.63518 14.7227 8.39035L19.8583 3.25383H16.388C16.0419 3.25365 15.7611 2.97304 15.7611 2.62691C15.7614 2.28105 16.0421 2.00018 16.388 2H21.3718Z" fill="black"/>
</svg>
