<svg width="24" height="24" viewBox="0 0 24 24" fill="none" xmlns="http://www.w3.org/2000/svg">
<path d="M20.75 12C20.75 9.8087 19.9445 7.80554 18.6134 6.27046L6.27046 18.6134C7.80554 19.9445 9.8087 20.75 12 20.75C16.8325 20.75 20.75 16.8325 20.75 12ZM5.38658 17.7295L17.7295 5.38658C16.1945 4.05551 14.1913 3.25 12 3.25C7.16751 3.25 3.25 7.16751 3.25 12C3.25 14.1913 4.05551 16.1945 5.38658 17.7295ZM22 12C22 17.5228 17.5228 22 12 22C6.47715 22 2 17.5228 2 12C2 6.47715 6.47715 2 12 2C17.5228 2 22 6.47715 22 12Z" fill="black"/>
</svg>
