<svg width="24" height="24" viewBox="0 0 24 24" fill="none" xmlns="http://www.w3.org/2000/svg">
<path d="M12.5 22C13.8413 22 14.9286 20.8807 14.9286 19.5H10.0714C10.0714 20.8807 11.1587 22 12.5 22Z" fill="black"/>
<path d="M12.5 4.39781L11.532 4.59906C9.31314 5.06036 7.64288 7.08079 7.64288 9.5C7.64288 10.2848 7.47973 12.2466 7.08569 14.1777C6.89008 15.1364 6.62837 16.1345 6.28054 17H18.7195C18.3716 16.1345 18.1099 15.1364 17.9143 14.1777C17.5203 12.2466 17.3572 10.2848 17.3572 9.5C17.3572 7.08077 15.6869 5.06034 13.468 4.59906L12.5 4.39781ZM20.052 17C20.3231 17.5592 20.6375 18.0012 21 18.25H4C4.3625 18.0012 4.6769 17.5592 4.94799 17C6.03906 14.7492 6.4286 10.599 6.4286 9.5C6.4286 6.47417 8.51739 3.95056 11.2916 3.3738C11.2877 3.33308 11.2857 3.29178 11.2857 3.25C11.2857 2.55964 11.8294 2 12.5 2C13.1706 2 13.7143 2.55964 13.7143 3.25C13.7143 3.29177 13.7123 3.33307 13.7084 3.37379C16.4826 3.95053 18.5715 6.47415 18.5715 9.5C18.5715 10.599 18.961 14.7492 20.052 17Z" fill="black"/>
</svg>
