<svg width="24" height="24" viewBox="0 0 24 24" fill="none" xmlns="http://www.w3.org/2000/svg">
<path d="M12.1709 5.75C12.5159 5.75024 12.7959 6.02997 12.7959 6.375C12.7959 6.72003 12.5159 6.99976 12.1709 7H3.875C3.52982 7 3.25 7.27982 3.25 7.625V20.125C3.25 20.4702 3.52982 20.75 3.875 20.75H16.375C16.7202 20.75 17 20.4702 17 20.125V11.8291C17.0002 11.4841 17.28 11.2041 17.625 11.2041C17.97 11.2041 18.2498 11.4841 18.25 11.8291V20.125C18.25 21.1605 17.4105 22 16.375 22H3.875C2.83947 22 2 21.1605 2 20.125V7.625C2 6.58947 2.83947 5.75 3.875 5.75H12.1709Z" fill="black"/>
<path d="M21.375 2C21.7202 2 22 2.27982 22 2.625V8.875C22 9.22018 21.7202 9.5 21.375 9.5C21.0298 9.5 20.75 9.22018 20.75 8.875V4.13379L10.5669 14.3169C10.3228 14.561 9.92718 14.561 9.68311 14.3169C9.43903 14.0728 9.43903 13.6772 9.68311 13.4331L19.8662 3.25H15.125C14.7798 3.25 14.5 2.97018 14.5 2.625C14.5 2.27982 14.7798 2 15.125 2H21.375Z" fill="black"/>
</svg>
