<svg width="24" height="24" viewBox="0 0 24 24" fill="none" xmlns="http://www.w3.org/2000/svg">
<path fill-rule="evenodd" clip-rule="evenodd" d="M9.25076 18.4367C9.25076 18.619 9.32319 18.7939 9.45211 18.9228C9.58104 19.0517 9.7559 19.1242 9.93822 19.1242H20.9376C21.1199 19.1242 21.2948 19.0517 21.4237 18.9228C21.5526 18.7939 21.6251 18.619 21.6251 18.4367V6.06239C21.6251 5.88006 21.5526 5.7052 21.4237 5.57628C21.2948 5.44735 21.1199 5.37492 20.9376 5.37492H9.93822C9.7559 5.37492 9.58104 5.44735 9.45211 5.57628C9.32319 5.7052 9.25076 5.88006 9.25076 6.06239V8.81223C9.25076 8.99456 9.17833 9.16942 9.04941 9.29834C8.92048 9.42727 8.74562 9.4997 8.5633 9.4997C8.38097 9.4997 8.20611 9.42727 8.07719 9.29834C7.94827 9.16942 7.87584 8.99456 7.87584 8.81223V6.06239C7.87584 5.51541 8.09312 4.99083 8.4799 4.60406C8.86667 4.21729 9.39124 4 9.93822 4H20.9376C21.4846 4 22.0092 4.21729 22.3959 4.60406C22.7827 4.99083 23 5.51541 23 6.06239V18.4367C23 18.9837 22.7827 19.5083 22.3959 19.895C22.0092 20.2818 21.4846 20.4991 20.9376 20.4991H9.93822C9.39124 20.4991 8.86667 20.2818 8.4799 19.895C8.09312 19.5083 7.87584 18.9837 7.87584 18.4367V15.6869C7.87584 15.5045 7.94827 15.3297 8.07719 15.2007C8.20611 15.0718 8.38097 14.9994 8.5633 14.9994C8.74562 14.9994 8.92048 15.0718 9.04941 15.2007C9.17833 15.3297 9.25076 15.5045 9.25076 15.6869V18.4367Z" fill="black"/>
<path fill-rule="evenodd" clip-rule="evenodd" d="M1.20197 12.7362C1.13795 12.6724 1.08715 12.5965 1.0525 12.513C1.01784 12.4295 1 12.3399 1 12.2495C1 12.1591 1.01784 12.0695 1.0525 11.986C1.08715 11.9025 1.13795 11.8266 1.20197 11.7628L5.32674 7.63802C5.39066 7.5741 5.46654 7.5234 5.55005 7.4888C5.63356 7.45421 5.72307 7.43641 5.81346 7.43641C5.90386 7.43641 5.99336 7.45421 6.07687 7.4888C6.16039 7.5234 6.23627 7.5741 6.30019 7.63802C6.3641 7.70193 6.4148 7.77781 6.4494 7.86133C6.48399 7.94484 6.50179 8.03435 6.50179 8.12474C6.50179 8.21513 6.48399 8.30464 6.4494 8.38815C6.4148 8.47166 6.3641 8.54754 6.30019 8.61146L3.34822 11.562H15.4379C15.6203 11.562 15.7951 11.6345 15.924 11.7634C16.053 11.8923 16.1254 12.0672 16.1254 12.2495C16.1254 12.4318 16.053 12.6067 15.924 12.7356C15.7951 12.8645 15.6203 12.937 15.4379 12.937H3.34822L6.30019 15.8876C6.3641 15.9515 6.4148 16.0274 6.4494 16.1109C6.48399 16.1944 6.50179 16.2839 6.50179 16.3743C6.50179 16.4647 6.48399 16.5542 6.4494 16.6377C6.4148 16.7212 6.3641 16.7971 6.30019 16.861C6.23627 16.9249 6.16039 16.9756 6.07687 17.0102C5.99336 17.0448 5.90386 17.0626 5.81346 17.0626C5.72307 17.0626 5.63356 17.0448 5.55005 17.0102C5.46654 16.9756 5.39066 16.9249 5.32674 16.861L1.20197 12.7362Z" fill="black"/>
</svg>
