<svg width="24" height="24" viewBox="0 0 24 24" fill="none" xmlns="http://www.w3.org/2000/svg">
<path d="M6.375 2C6.72018 2 7 2.27982 7 2.625V3.25H17V2.625C17 2.27982 17.2798 2 17.625 2C17.9702 2 18.25 2.27982 18.25 2.625V3.25H19.5C20.8807 3.25 22 4.36929 22 5.75V19.5C22 20.8807 20.8807 22 19.5 22H4.5C3.11929 22 2 20.8807 2 19.5V5.75C2 4.36929 3.11929 3.25 4.5 3.25H5.75V2.625C5.75 2.27982 6.02982 2 6.375 2ZM3.25 7V19.5C3.25 20.1904 3.80964 20.75 4.5 20.75H19.5C20.1904 20.75 20.75 20.1904 20.75 19.5V7H3.25Z" fill="black"/>
</svg>
