<svg width="24" height="24" viewBox="0 0 24 24" fill="none" xmlns="http://www.w3.org/2000/svg">
<path d="M5.34736 16.8626C5.61035 17.1311 5.74204 17.505 5.70654 17.8825C5.62699 18.7283 5.44377 19.6086 5.20846 20.4263C6.95208 20.0161 8.01697 19.5402 8.50102 19.2905C8.77578 19.1488 9.09227 19.1153 9.38978 19.1965C10.2121 19.4209 11.0885 19.5426 12 19.5426C16.9945 19.5426 20.75 15.97 20.75 11.9076C20.75 7.84513 16.9945 4.27251 12 4.27251C7.0055 4.27251 3.25 7.84513 3.25 11.9076C3.25 13.7757 4.02163 15.5092 5.34736 16.8626ZM4.73112 21.8318C4.7227 21.8335 4.71427 21.8352 4.70583 21.8368C4.59104 21.8599 4.47403 21.8826 4.35477 21.9048C4.1875 21.936 4.0158 21.9663 3.83965 21.9957C3.59088 22.0371 3.40046 21.7722 3.49872 21.5359C3.56292 21.3815 3.62621 21.2197 3.68788 21.0519C3.72705 20.9453 3.76556 20.8363 3.80323 20.7253C3.80486 20.7205 3.80648 20.7157 3.8081 20.7109C4.11778 19.7951 4.36996 18.7424 4.46223 17.7612C2.92883 16.1958 2 14.1483 2 11.9076C2 6.98805 6.47715 3 12 3C17.5228 3 22 6.98805 22 11.9076C22 16.8271 17.5228 20.8151 12 20.8151C10.9791 20.8151 9.99385 20.6788 9.06605 20.4256C8.41671 20.7606 7.01792 21.3703 4.73112 21.8318Z" fill="black"/>
</svg>
