<svg width="24" height="24" viewBox="0 0 24 24" fill="none" xmlns="http://www.w3.org/2000/svg">
<path d="M17.1381 8.06694C17.3984 7.82286 17.3984 7.42714 17.1381 7.18306C16.8777 6.93898 16.4556 6.93898 16.1953 7.18306L7.33333 15.4911L3.13807 11.5581C2.87772 11.314 2.45561 11.314 2.19526 11.5581C1.93491 11.8021 1.93491 12.1979 2.19526 12.4419L6.86193 16.8169C6.98695 16.9342 7.15652 17 7.33333 17C7.51014 17 7.67971 16.9342 7.80474 16.8169L17.1381 8.06694Z" fill="black"/>
<path d="M11.5286 16.8169L10.3333 15.6964L11.2761 14.8125L12 15.4911L20.8619 7.18306C21.1223 6.93898 21.5444 6.93898 21.8047 7.18306C22.0651 7.42714 22.0651 7.82286 21.8047 8.06694L12.4714 16.8169C12.3464 16.9342 12.1768 17 12 17C11.8232 17 11.6536 16.9342 11.5286 16.8169Z" fill="black"/>
<path d="M7.80474 11.5581L9 12.6786L8.05719 13.5625L6.86193 12.4419C6.60158 12.1979 6.60158 11.8021 6.86193 11.5581C7.12228 11.314 7.54439 11.314 7.80474 11.5581Z" fill="black"/>
</svg>
