<svg width="24" height="24" viewBox="0 0 24 24" fill="none" xmlns="http://www.w3.org/2000/svg">
<path d="M19.5 3.25C20.1904 3.25 20.75 3.80964 20.75 4.5V19.5C20.75 20.1904 20.1904 20.75 19.5 20.75H4.5C3.80964 20.75 3.25 20.1904 3.25 19.5V4.5C3.25 3.80964 3.80964 3.25 4.5 3.25H19.5ZM4.5 2C3.11929 2 2 3.11929 2 4.5V19.5C2 20.8807 3.11929 22 4.5 22H19.5C20.8807 22 22 20.8807 22 19.5V4.5C22 3.11929 20.8807 2 19.5 2H4.5Z" fill="black"/>
<path d="M15.7121 8.21209C16.0782 7.84597 16.6718 7.84597 17.0379 8.21209C17.3995 8.57371 17.404 9.15727 17.0512 9.52434L12.061 15.7622C12.0538 15.7712 12.0461 15.7798 12.0379 15.7879C11.6718 16.154 11.0782 16.154 10.7121 15.7879L7.40402 12.4799C7.0379 12.1137 7.0379 11.5201 7.40402 11.154C7.77014 10.7879 8.36373 10.7879 8.72985 11.154L11.3467 13.7709L15.6872 8.24013C15.6949 8.23029 15.7032 8.22093 15.7121 8.21209Z" fill="black"/>
</svg>
