<svg width="24" height="24" viewBox="0 0 24 24" fill="none" xmlns="http://www.w3.org/2000/svg">
<path d="M11.4698 2.46979C11.7627 2.1769 12.2374 2.1769 12.5303 2.46979C12.8232 2.76269 12.8232 3.23746 12.5303 3.53034L4.0606 12.0001L12.5303 20.4698C12.8232 20.7627 12.8232 21.2375 12.5303 21.5303C12.2375 21.8232 11.7627 21.8232 11.4698 21.5303L2.46978 12.5303C2.17689 12.2374 2.17689 11.7627 2.46978 11.4698L11.4698 2.46979Z" fill="black"/>
<path d="M17.4698 2.46979C17.7627 2.1769 18.2374 2.1769 18.5303 2.46979C18.8232 2.76269 18.8232 3.23746 18.5303 3.53034L10.0606 12.0001L18.5303 20.4698C18.8232 20.7627 18.8232 21.2375 18.5303 21.5303C18.2375 21.8232 17.7627 21.8232 17.4698 21.5303L8.46978 12.5303C8.17689 12.2374 8.17689 11.7627 8.46978 11.4698L17.4698 2.46979Z" fill="black"/>
</svg>
