<svg width="24" height="24" viewBox="0 0 24 24" fill="none" xmlns="http://www.w3.org/2000/svg">
<path d="M5.46978 2.46979C5.76267 2.1769 6.23743 2.1769 6.53032 2.46979L15.5303 11.4698C15.8232 11.7627 15.8232 12.2375 15.5303 12.5303L6.53032 21.5303C6.23745 21.8232 5.76267 21.8232 5.46978 21.5303C5.17688 21.2374 5.17688 20.7627 5.46978 20.4698L13.9395 12.0001L5.46978 3.53034C5.17688 3.23745 5.17688 2.76269 5.46978 2.46979Z" fill="black"/>
<path d="M11.4698 2.46979C11.7627 2.1769 12.2374 2.1769 12.5303 2.46979L21.5303 11.4698C21.8232 11.7627 21.8232 12.2375 21.5303 12.5303L12.5303 21.5303C12.2374 21.8232 11.7627 21.8232 11.4698 21.5303C11.1769 21.2374 11.1769 20.7627 11.4698 20.4698L19.9395 12.0001L11.4698 3.53034C11.1769 3.23745 11.1769 2.76269 11.4698 2.46979Z" fill="black"/>
</svg>
