<svg width="24" height="24" viewBox="0 0 24 24" fill="none" xmlns="http://www.w3.org/2000/svg">
<path d="M12 6.375C12 6.02982 11.7202 5.75 11.375 5.75C11.0298 5.75 10.75 6.02982 10.75 6.375V13.25C10.75 13.4743 10.8702 13.6814 11.0649 13.7927L15.4399 16.2927C15.7396 16.4639 16.1214 16.3598 16.2927 16.0601C16.4639 15.7604 16.3598 15.3786 16.0601 15.2073L12 12.8873V6.375Z" fill="black"/>
<path d="M12 22C17.5228 22 22 17.5228 22 12C22 6.47715 17.5228 2 12 2C6.47715 2 2 6.47715 2 12C2 17.5228 6.47715 22 12 22ZM20.75 12C20.75 16.8325 16.8325 20.75 12 20.75C7.16751 20.75 3.25 16.8325 3.25 12C3.25 7.16751 7.16751 3.25 12 3.25C16.8325 3.25 20.75 7.16751 20.75 12Z" fill="black"/>
</svg>
