<svg width="24" height="24" viewBox="0 0 24 24" fill="none" xmlns="http://www.w3.org/2000/svg">
<path d="M2.625 14.8849C2.97018 14.8849 3.25 15.1587 3.25 15.4964V18.554C3.25 19.2294 3.80964 19.777 4.5 19.777H19.5C20.1904 19.777 20.75 19.2294 20.75 18.554V15.4964C20.75 15.1587 21.0298 14.8849 21.375 14.8849C21.7202 14.8849 22 15.1587 22 15.4964V18.554C22 19.9049 20.8807 21 19.5 21H4.5C3.11929 21 2 19.9049 2 18.554V15.4964C2 15.1587 2.27982 14.8849 2.625 14.8849Z" fill="black"/>
<path d="M11.5581 17.2741C11.8021 17.5129 12.1979 17.5129 12.4419 17.2741L16.1919 13.605C16.436 13.3662 16.436 12.9791 16.1919 12.7402C15.9479 12.5014 15.5521 12.5014 15.3081 12.7402L12.625 15.3654V4.61151C12.625 4.27378 12.3452 4 12 4C11.6548 4 11.375 4.27378 11.375 4.61151V15.3654L8.69194 12.7402C8.44786 12.5014 8.05214 12.5014 7.80806 12.7402C7.56398 12.9791 7.56398 13.3662 7.80806 13.605L11.5581 17.2741Z" fill="black"/>
</svg>
