<svg width="24" height="24" viewBox="0 0 24 24" fill="none" xmlns="http://www.w3.org/2000/svg">
<path d="M2 7.5C2 6.83696 2.26339 6.20107 2.73223 5.73223C3.20107 5.26339 3.83696 5 4.5 5H19.5C20.163 5 20.7989 5.26339 21.2678 5.73223C21.7366 6.20107 22 6.83696 22 7.5V17.5C22 18.163 21.7366 18.7989 21.2678 19.2678C20.7989 19.7366 20.163 20 19.5 20H4.5C3.83696 20 3.20107 19.7366 2.73223 19.2678C2.26339 18.7989 2 18.163 2 17.5V7.5ZM4.5 6.25C4.16848 6.25 3.85054 6.3817 3.61612 6.61612C3.3817 6.85054 3.25 7.16848 3.25 7.5V7.77125L12 13.0212L20.75 7.77125V7.5C20.75 7.16848 20.6183 6.85054 20.3839 6.61612C20.1495 6.3817 19.8315 6.25 19.5 6.25H4.5ZM20.75 9.22875L14.865 12.76L20.75 16.3812V9.22875ZM20.7075 17.8237L13.6575 13.485L12 14.4788L10.3425 13.485L3.2925 17.8225C3.36353 18.0885 3.5204 18.3236 3.73874 18.4913C3.95708 18.659 4.22468 18.75 4.5 18.75H19.5C19.7752 18.75 20.0426 18.6593 20.261 18.4918C20.4793 18.3243 20.6362 18.0895 20.7075 17.8237ZM3.25 16.3812L9.135 12.76L3.25 9.22875V16.3812Z" fill="black"/>
</svg>
