<svg width="24" height="24" viewBox="0 0 24 24" fill="none" xmlns="http://www.w3.org/2000/svg">
<path d="M18.6986 16.0765C20.8266 14.1669 22 12 22 12C22 12 18.25 5.07474 12 5.07474C10.7308 5.07474 9.56465 5.36034 8.51209 5.81554L9.47568 6.78617C10.2623 6.50156 11.1055 6.33388 12 6.33388C14.6492 6.33388 16.8487 7.80478 18.4599 9.42772C19.2546 10.2283 19.8723 11.0329 20.2909 11.6379C20.3818 11.7693 20.463 11.8907 20.5341 12C20.463 12.1093 20.3818 12.2307 20.2909 12.3621C19.8723 12.9671 19.2546 13.7717 18.4599 14.5723C18.2538 14.7798 18.0382 14.9849 17.8132 15.1847L18.6986 16.0765Z" fill="black"/>
<path d="M16.1218 13.4809C16.2857 13.0181 16.375 12.5195 16.375 12C16.375 9.56609 14.4162 7.59302 12 7.59302C11.4842 7.59302 10.9893 7.68292 10.5298 7.84802L11.5577 8.88344C11.7022 8.86282 11.8499 8.85215 12 8.85215C13.7259 8.85215 15.125 10.2615 15.125 12C15.125 12.1512 15.1144 12.3 15.0939 12.4455L16.1218 13.4809Z" fill="black"/>
<path d="M12.4423 15.1166L13.4702 16.152C13.0107 16.3171 12.5158 16.407 12 16.407C9.58375 16.407 7.625 14.4339 7.625 12C7.625 11.4804 7.71425 10.9819 7.87816 10.519L8.90606 11.5545C8.88559 11.7 8.875 11.8488 8.875 12C8.875 13.7385 10.2741 15.1478 12 15.1478C12.1501 15.1478 12.2978 15.1372 12.4423 15.1166Z" fill="black"/>
<path d="M6.1868 8.81532C5.96182 9.01513 5.74617 9.22018 5.54013 9.42772C4.74539 10.2283 4.1277 11.0329 3.70909 11.6379C3.61818 11.7693 3.53703 11.8907 3.46587 12C3.53703 12.1093 3.61818 12.2307 3.70909 12.3621C4.1277 12.9671 4.74539 13.7717 5.54013 14.5723C7.15129 16.1952 9.35077 17.6661 12 17.6661C12.8945 17.6661 13.7377 17.4984 14.5243 17.2138L15.4879 18.1844C14.4354 18.6397 13.2692 18.9253 12 18.9253C5.75 18.9253 2 12 2 12C2 12 3.1734 9.83305 5.3014 7.92344L6.1868 8.81532Z" fill="black"/>
<path d="M19.0581 20L4.05806 4.89034L4.94194 4L19.9419 19.1097L19.0581 20Z" fill="black"/>
</svg>
