<svg width="24" height="24" viewBox="0 0 24 24" fill="none" xmlns="http://www.w3.org/2000/svg">
<path d="M22 12.5C22 12.5 18.25 6 12 6C5.75 6 2 12.5 2 12.5C2 12.5 5.75 19 12 19C18.25 19 22 12.5 22 12.5ZM3.46587 12.5C3.53703 12.3974 3.61818 12.2835 3.70909 12.1601C4.1277 11.5923 4.74539 10.8371 5.54013 10.0857C7.15129 8.5624 9.35077 7.18182 12 7.18182C14.6492 7.18182 16.8487 8.5624 18.4599 10.0857C19.2546 10.8371 19.8723 11.5923 20.2909 12.1601C20.3818 12.2835 20.463 12.3974 20.5341 12.5C20.463 12.6026 20.3818 12.7165 20.2909 12.8399C19.8723 13.4077 19.2546 14.1629 18.4599 14.9143C16.8487 16.4376 14.6492 17.8182 12 17.8182C9.35077 17.8182 7.15129 16.4376 5.54013 14.9143C4.74539 14.1629 4.1277 13.4077 3.70909 12.8399C3.61818 12.7165 3.53703 12.6026 3.46587 12.5Z" fill="black"/>
<path d="M12 9.54545C10.2741 9.54545 8.875 10.8682 8.875 12.5C8.875 14.1318 10.2741 15.4545 12 15.4545C13.7259 15.4545 15.125 14.1318 15.125 12.5C15.125 10.8682 13.7259 9.54545 12 9.54545ZM7.625 12.5C7.625 10.2155 9.58375 8.36364 12 8.36364C14.4162 8.36364 16.375 10.2155 16.375 12.5C16.375 14.7845 14.4162 16.6364 12 16.6364C9.58375 16.6364 7.625 14.7845 7.625 12.5Z" fill="black"/>
</svg>
