<svg width="24" height="24" viewBox="0 0 24 24" fill="none" xmlns="http://www.w3.org/2000/svg">
    <path d="M17.7072 13.1747C17.0522 14.5019 16.1656 15.8251 15.2572 17.0126C14.3517 18.1963 13.443 19.221 12.7596 19.9506C12.6688 20.0475 12.5821 20.1391 12.5 20.2251C12.4179 20.1391 12.3312 20.0475 12.2404 19.9506C11.557 19.221 10.6484 18.1963 9.74281 17.0126C8.83443 15.8251 7.94781 14.5019 7.29279 13.1747C6.63101 11.8338 6.25 10.5774 6.25 9.5C6.25 6.04822 9.04822 3.25 12.5 3.25C15.9518 3.25 18.75 6.04822 18.75 9.5C18.75 10.5774 18.369 11.8338 17.7072 13.1747ZM12.5 22C12.5 22 20 14.8921 20 9.5C20 5.35786 16.6421 2 12.5 2C8.35786 2 5 5.35786 5 9.5C5 14.8921 12.5 22 12.5 22Z"
          fill="currentColor"/>
    <path d="M12.5 12C11.1193 12 10 10.8807 10 9.5C10 8.11929 11.1193 7 12.5 7C13.8807 7 15 8.11929 15 9.5C15 10.8807 13.8807 12 12.5 12ZM12.5 13.25C14.5711 13.25 16.25 11.5711 16.25 9.5C16.25 7.42893 14.5711 5.75 12.5 5.75C10.4289 5.75 8.75 7.42893 8.75 9.5C8.75 11.5711 10.4289 13.25 12.5 13.25Z"
          fill="currentColor"/>
</svg>
