<svg width="24" height="24" viewBox="0 0 24 24" fill="none" xmlns="http://www.w3.org/2000/svg">
<path d="M9.5 9.46429C9.5 10.4702 8.66053 11.2857 7.625 11.2857C6.58947 11.2857 5.75 10.4702 5.75 9.46429C5.75 8.45834 6.58947 7.64286 7.625 7.64286C8.66053 7.64286 9.5 8.45834 9.5 9.46429Z" fill="black"/>
<path d="M4.5 4C3.11929 4 2 5.08731 2 6.42857V18.5714C2 19.9127 3.11929 21 4.5 21H19.5C20.8807 21 22 19.9127 22 18.5714V6.42857C22 5.08731 20.8807 4 19.5 4H4.5ZM19.5 5.21429C20.1904 5.21429 20.75 5.75794 20.75 6.42857V14.3214L16.0295 11.957C15.7889 11.8401 15.4983 11.8859 15.3081 12.0707L10.6704 16.5759L7.34669 14.4234C7.0988 14.2629 6.76872 14.2946 6.55806 14.4993L3.25 17.3572V6.42857C3.25 5.75794 3.80964 5.21429 4.5 5.21429H19.5Z" fill="black"/>
</svg>
