<svg width="24" height="24" viewBox="0 0 24 24" fill="none" xmlns="http://www.w3.org/2000/svg">
<path d="M7.07238 9.81366L5.01474 11.8713C3.25739 13.6287 3.25738 16.4779 5.01474 18.2353C6.7721 19.9926 9.62135 19.9926 11.3787 18.2353L14.1213 15.4926C15.8787 13.7353 15.8787 10.886 14.1213 9.12866C13.7494 8.75676 13.3286 8.46356 12.8796 8.24906L12 9.12866C11.9086 9.22013 11.8314 9.32047 11.7685 9.42692C12.2416 9.56249 12.688 9.81663 13.0607 10.1893C14.2323 11.3609 14.2323 13.2604 13.0607 14.432L10.318 17.1746C9.14647 18.3462 7.24698 18.3462 6.0754 17.1746C4.90383 16.003 4.90383 14.1035 6.0754 12.932L7.26431 11.7431C7.09602 11.1129 7.03205 10.4606 7.07238 9.81366Z" fill="black"/>
<path d="M9.87871 7.00734C8.12135 8.7647 8.12135 11.6139 9.87871 13.3713C10.2506 13.7432 10.6714 14.0364 11.1204 14.2509L12.2838 13.0875C11.7913 12.956 11.3258 12.697 10.9394 12.3106C9.76779 11.1391 9.76779 9.23958 10.9394 8.068L13.682 5.32536C14.8536 4.15379 16.7531 4.15379 17.9246 5.32536C19.0962 6.49693 19.0962 8.39643 17.9246 9.568L16.7357 10.7569C16.904 11.3871 16.968 12.0393 16.9277 12.6863L18.9853 10.6287C20.7427 8.8713 20.7427 6.02206 18.9853 4.2647C17.2279 2.50734 14.3787 2.50734 12.6213 4.2647L9.87871 7.00734Z" fill="black"/>
</svg>
