<svg width="24" height="24" viewBox="0 0 24 24" fill="none" xmlns="http://www.w3.org/2000/svg">
<path fill-rule="evenodd" clip-rule="evenodd" d="M7.71429 17.6C7.71429 17.2134 8.03408 16.9 8.42857 16.9H21.2857C21.6802 16.9 22 17.2134 22 17.6C22 17.9866 21.6802 18.3 21.2857 18.3H8.42857C8.03408 18.3 7.71429 17.9866 7.71429 17.6Z" fill="black"/>
<path fill-rule="evenodd" clip-rule="evenodd" d="M7.71429 12C7.71429 11.6134 8.03408 11.3 8.42857 11.3H21.2857C21.6802 11.3 22 11.6134 22 12C22 12.3866 21.6802 12.7 21.2857 12.7H8.42857C8.03408 12.7 7.71429 12.3866 7.71429 12Z" fill="black"/>
<path fill-rule="evenodd" clip-rule="evenodd" d="M7.71429 6.4C7.71429 6.0134 8.03408 5.7 8.42857 5.7H21.2857C21.6802 5.7 22 6.0134 22 6.4C22 6.7866 21.6802 7.1 21.2857 7.1H8.42857C8.03408 7.1 7.71429 6.7866 7.71429 6.4Z" fill="black"/>
<path fill-rule="evenodd" clip-rule="evenodd" d="M3.42857 7.8C4.21755 7.8 4.85714 7.1732 4.85714 6.4C4.85714 5.6268 4.21755 5 3.42857 5C2.63959 5 2 5.6268 2 6.4C2 7.1732 2.63959 7.8 3.42857 7.8Z" fill="black"/>
<path fill-rule="evenodd" clip-rule="evenodd" d="M3.42857 13.4C4.21755 13.4 4.85714 12.7732 4.85714 12C4.85714 11.2268 4.21755 10.6 3.42857 10.6C2.63959 10.6 2 11.2268 2 12C2 12.7732 2.63959 13.4 3.42857 13.4Z" fill="black"/>
<path fill-rule="evenodd" clip-rule="evenodd" d="M3.42857 19C4.21755 19 4.85714 18.3732 4.85714 17.6C4.85714 16.8268 4.21755 16.2 3.42857 16.2C2.63959 16.2 2 16.8268 2 17.6C2 18.3732 2.63959 19 3.42857 19Z" fill="black"/>
</svg>
