<svg width="24" height="24" viewBox="0 0 24 24" fill="none" xmlns="http://www.w3.org/2000/svg">
<path fill-rule="evenodd" clip-rule="evenodd" d="M7.71429 17.6872C7.71429 17.2749 8.03408 16.9406 8.42857 16.9406H21.2857C21.6802 16.9406 22 17.2749 22 17.6872C22 18.0996 21.6802 18.4338 21.2857 18.4338H8.42857C8.03408 18.4338 7.71429 18.0996 7.71429 17.6872Z" fill="black"/>
<path fill-rule="evenodd" clip-rule="evenodd" d="M7.71429 11.7142C7.71429 11.3018 8.03408 10.9676 8.42857 10.9676H21.2857C21.6802 10.9676 22 11.3018 22 11.7142C22 12.1265 21.6802 12.4608 21.2857 12.4608H8.42857C8.03408 12.4608 7.71429 12.1265 7.71429 11.7142Z" fill="black"/>
<path fill-rule="evenodd" clip-rule="evenodd" d="M7.71429 5.74116C7.71429 5.32881 8.03408 4.99453 8.42857 4.99453H21.2857C21.6802 4.99453 22 5.32881 22 5.74116C22 6.15351 21.6802 6.48779 21.2857 6.48779H8.42857C8.03408 6.48779 7.71429 6.15351 7.71429 5.74116Z" fill="black"/>
<path d="M3.01842 18.2326V17.5239H3.42857C3.73828 17.5239 3.94754 17.3197 3.94754 17.0514C3.94754 16.7743 3.72154 16.5877 3.43136 16.5877C3.11328 16.5877 2.90681 16.8152 2.89844 17.0514H2.0558C2.07812 16.3544 2.58873 15.876 3.46484 15.876C4.30469 15.8731 4.82645 16.3106 4.83203 16.926C4.83761 17.4918 4.39955 17.7689 4.12891 17.8126V17.8622C4.49163 17.8972 4.93527 18.183 4.94085 18.8042C4.94643 19.6004 4.22377 20 3.43973 20C2.50223 20 2.01116 19.4459 2 18.813H2.83147C2.84263 19.0784 3.09654 19.2709 3.43415 19.2738C3.79688 19.2738 4.03962 19.058 4.03683 18.7517C4.03404 18.4601 3.81641 18.2326 3.44531 18.2326H3.01842Z" fill="black"/>
<path d="M3.01283 11.2155H2.15067V11.163C2.15067 10.5534 2.57199 9.90303 3.51786 9.90303C4.35212 9.90303 4.89062 10.3901 4.89062 11.0317C4.89062 11.6121 4.52232 11.9533 4.20982 12.2975L3.44252 13.152V13.1958H4.94922V13.9541H2.20368V13.3649L3.57087 11.8863C3.76897 11.6734 3.9894 11.4313 3.9894 11.128C3.9894 10.8596 3.78013 10.6497 3.50112 10.6497C3.1942 10.6497 3.01283 10.8888 3.01283 11.1542C3.01283 11.1746 3.01283 11.2009 3.01283 11.2155Z" fill="black"/>
<path d="M4.23382 7.98104H3.32701V4.88079H3.28237L2.42857 5.50784V4.66205L3.32701 4H4.23382V7.98104Z" fill="black"/>
</svg>
