<svg width="24" height="24" viewBox="0 0 24 24" fill="none" xmlns="http://www.w3.org/2000/svg">
<path fill-rule="evenodd" clip-rule="evenodd" d="M21.7712 2.14167C21.916 2.26038 22 2.43776 22 2.62501V20.125C22 20.4229 21.7897 20.6794 21.4976 20.7379L15.2476 21.9879C15.1667 22.004 15.0833 22.004 15.0024 21.9879L8.875 20.7624L2.74757 21.9879C2.56396 22.0246 2.37356 21.977 2.22876 21.8583C2.08395 21.7396 2 21.5622 2 21.375V3.875C2 3.57708 2.21029 3.32057 2.50243 3.26214L8.75243 2.01214C8.83334 1.99596 8.91666 1.99596 8.99757 2.01214L15.125 3.23763L21.2524 2.01214C21.436 1.97542 21.6264 2.02295 21.7712 2.14167ZM14.5 4.38738L9.5 3.38738V19.6126L14.5 20.6126V4.38738ZM15.75 20.6126L20.75 19.6126V3.38738L15.75 4.38738V20.6126ZM8.25 19.6126V3.38738L3.25 4.38738V20.6126L8.25 19.6126Z" fill="black"/>
</svg>
