<svg width="24" height="24" viewBox="0 0 24 24" fill="none" xmlns="http://www.w3.org/2000/svg">
<path d="M19.1875 2.63883L19.3761 2.45018C19.9764 1.84994 20.9496 1.84994 21.5498 2.45018C22.1501 3.05043 22.1501 4.02361 21.5498 4.62386L21.3612 4.8125C22.0311 5.56248 22.0061 6.71422 21.2861 7.43418L8.18008 20.5402C8.09849 20.6218 7.99626 20.6797 7.88431 20.7077L2.79108 21.981C2.57412 22.0352 2.34462 21.9716 2.18649 21.8135C2.02835 21.6554 1.96478 21.4259 2.01902 21.2089L3.29233 16.1157C3.32032 16.0037 3.3782 15.9015 3.45979 15.8199L15.7361 3.54362C15.4876 3.36842 15.1419 3.39196 14.9196 3.61426L10.7267 7.80713C10.4781 8.05575 10.075 8.05575 9.82633 7.80713C9.5777 7.5585 9.5777 7.15539 9.82633 6.90676L14.0192 2.71389C14.7399 1.99323 15.8931 1.96886 16.6431 2.64077C17.366 1.99303 18.4638 1.99238 19.1875 2.63883ZM18.3665 3.61426C18.1179 3.36563 17.7148 3.36563 17.4662 3.61426L4.48485 16.5956L3.51166 20.4883L7.40441 19.5152L20.3857 6.53382C20.6344 6.28519 20.6344 5.88208 20.3857 5.63345L18.3665 3.61426Z" fill="black"/>
</svg>
