<svg width="24" height="24" viewBox="0 0 24 24" fill="none" xmlns="http://www.w3.org/2000/svg">
<path d="M20.75 20C20.75 20 22 20 22 18.75C22 17.5 20.75 13.75 15.75 13.75C10.75 13.75 9.5 17.5 9.5 18.75C9.5 20 10.75 20 10.75 20H20.75ZM10.7779 18.75C10.7736 18.7495 10.7675 18.7487 10.7602 18.7475C10.7567 18.7469 10.7533 18.7463 10.75 18.7456C10.7518 18.4156 10.9586 17.4586 11.6991 16.5947C12.3917 15.7867 13.6034 15 15.75 15C17.8966 15 19.1083 15.7867 19.8009 16.5947C20.5414 17.4586 20.7482 18.4156 20.75 18.7456C20.7467 18.7463 20.7433 18.7469 20.7398 18.7475C20.7325 18.7487 20.7264 18.7495 20.7221 18.75H10.7779Z" fill="black"/>
<path d="M15.75 11.25C17.1307 11.25 18.25 10.1307 18.25 8.75C18.25 7.36929 17.1307 6.25 15.75 6.25C14.3693 6.25 13.25 7.36929 13.25 8.75C13.25 10.1307 14.3693 11.25 15.75 11.25ZM19.5 8.75C19.5 10.8211 17.8211 12.5 15.75 12.5C13.6789 12.5 12 10.8211 12 8.75C12 6.67893 13.6789 5 15.75 5C17.8211 5 19.5 6.67893 19.5 8.75Z" fill="black"/>
<path d="M10.6699 14.1C10.2102 13.9529 9.69942 13.846 9.13285 13.7913C8.85244 13.7643 8.55835 13.75 8.25 13.75C3.25 13.75 2 17.5 2 18.75C2 19.5833 2.41667 20 3.25 20H8.52045C8.34445 19.6449 8.25 19.2239 8.25 18.75C8.25 17.4871 8.72156 16.1975 9.61227 15.1202C9.91659 14.7522 10.2698 14.4089 10.6699 14.1ZM8.15005 15.0006C7.40319 16.142 7 17.4434 7 18.75H3.25C3.25 18.4241 3.45531 17.4625 4.19907 16.5947C4.88086 15.7993 6.06562 15.0246 8.15005 15.0006Z" fill="black"/>
<path d="M3.875 9.375C3.875 7.30393 5.55393 5.625 7.625 5.625C9.69607 5.625 11.375 7.30393 11.375 9.375C11.375 11.4461 9.69607 13.125 7.625 13.125C5.55393 13.125 3.875 11.4461 3.875 9.375ZM7.625 6.875C6.24429 6.875 5.125 7.99429 5.125 9.375C5.125 10.7557 6.24429 11.875 7.625 11.875C9.00571 11.875 10.125 10.7557 10.125 9.375C10.125 7.99429 9.00571 6.875 7.625 6.875Z" fill="black"/>
</svg>
