<svg width="24" height="24" viewBox="0 0 24 24" fill="none" xmlns="http://www.w3.org/2000/svg">
<path fill-rule="evenodd" clip-rule="evenodd" d="M12 13.5C19.5 13.5 21 18 21 19.5C21 21 19.5 21 19.5 21H4.5C4.5 21 3 21 3 19.5C3 18 4.5 13.5 12 13.5ZM12 15C8.56635 15 6.72643 16.0197 5.74805 16.998C4.73112 18.015 4.50239 19.1233 4.5 19.4941H19.5C19.4976 19.1233 19.2689 18.015 18.252 16.998C17.2736 16.0197 15.4337 15 12 15Z" fill="black"/>
<path fill-rule="evenodd" clip-rule="evenodd" d="M12 3C14.4853 3 16.5 5.01472 16.5 7.5C16.5 9.98528 14.4853 12 12 12C9.51472 12 7.5 9.98528 7.5 7.5C7.5 5.01472 9.51472 3 12 3ZM12 4.5C10.3431 4.5 9 5.84315 9 7.5C9 9.15685 10.3431 10.5 12 10.5C13.6569 10.5 15 9.15685 15 7.5C15 5.84315 13.6569 4.5 12 4.5Z" fill="black"/>
</svg>
