<svg width="24" height="24" viewBox="0 0 24 24" fill="none" xmlns="http://www.w3.org/2000/svg">
<path fill-rule="evenodd" clip-rule="evenodd" d="M12 2C12.4602 2 12.8333 2.3731 12.8333 2.83333V11.1667H21.1667C21.6269 11.1667 22 11.5398 22 12C22 12.4602 21.6269 12.8333 21.1667 12.8333H12.8333V21.1667C12.8333 21.6269 12.4602 22 12 22C11.5398 22 11.1667 21.6269 11.1667 21.1667V12.8333H2.83333C2.3731 12.8333 2 12.4602 2 12C2 11.5398 2.3731 11.1667 2.83333 11.1667H11.1667V2.83333C11.1667 2.3731 11.5398 2 12 2Z" fill="black"/>
</svg>
