<svg width="24" height="24" viewBox="0 0 24 24" fill="none" xmlns="http://www.w3.org/2000/svg">
<path d="M23 12C23 14.9174 21.8411 17.7153 19.7782 19.7782C17.7153 21.8411 14.9174 23 12 23C9.08262 23 6.28473 21.8411 4.22183 19.7782C2.15893 17.7153 1 14.9174 1 12C1 9.08262 2.15893 6.28473 4.22183 4.22183C6.28473 2.15893 9.08262 1 12 1C14.9174 1 17.7153 2.15893 19.7782 4.22183C21.8411 6.28473 23 9.08262 23 12ZM12.3946 9.12075C11.324 9.56625 9.18538 10.4875 5.97888 11.8845C5.45913 12.0907 5.18642 12.2933 5.16075 12.4922C5.1195 12.8264 5.53888 12.9584 6.1095 13.1385L6.35012 13.2141C6.91113 13.397 7.66737 13.6101 8.05925 13.6184C8.41675 13.6275 8.81458 13.4809 9.25275 13.1784C12.2493 11.1562 13.7958 10.1341 13.892 10.1121C13.9608 10.0956 14.057 10.0764 14.1202 10.1341C14.1835 10.1919 14.178 10.2991 14.1711 10.328C14.1299 10.5054 12.484 12.0344 11.6329 12.8264C11.3675 13.0739 11.1791 13.2485 11.1406 13.2884C11.0559 13.375 10.9697 13.4603 10.8821 13.5441C10.3596 14.0474 9.96912 14.4241 10.9028 15.0401C11.3524 15.3371 11.7126 15.5805 12.0715 15.8252C12.462 16.092 12.8525 16.3574 13.3585 16.6901C13.4868 16.7745 13.6106 16.8602 13.7298 16.9472C14.1849 17.2717 14.596 17.5632 15.1006 17.5165C15.3949 17.489 15.6988 17.214 15.8527 16.389C16.2171 14.4406 16.9335 10.2207 17.0985 8.48137C17.1089 8.33679 17.1029 8.19149 17.0806 8.04825C17.0673 7.93276 17.0114 7.82638 16.9239 7.74988C16.7986 7.66385 16.6496 7.61914 16.4976 7.622C16.0851 7.62887 15.4485 7.85025 12.3946 9.12075Z" fill="black"/>
</svg>
