<svg width="24" height="24" viewBox="0 0 24 24" fill="none" xmlns="http://www.w3.org/2000/svg">
<path fill-rule="evenodd" clip-rule="evenodd" d="M6.28236 2.00965C6.38909 2.02687 6.4772 2.06406 6.53235 2.09066C6.61752 2.13179 6.70066 2.18437 6.77592 2.23727C6.92727 2.3437 7.09565 2.48682 7.26764 2.64526C7.61419 2.96455 8.02128 3.39063 8.41376 3.83837C8.80687 4.28685 9.19519 4.76874 9.50473 5.20027C9.65928 5.41573 9.79877 5.6254 9.91006 5.8166C10.0157 5.99808 10.1183 6.20005 10.1711 6.39242C10.2975 6.85369 10.2517 7.36992 10.1711 7.8228C10.0884 8.28723 9.95003 8.77751 9.83193 9.20592C9.70812 9.65509 9.60923 10.0264 9.57091 10.318C9.55277 10.4561 9.55374 10.5437 9.55988 10.5929C10.1389 11.1747 12.8914 13.9413 13.4275 14.4799C13.4441 14.4838 13.5212 14.5038 13.7142 14.4838C13.9788 14.4562 14.315 14.3704 14.7087 14.2581C15.0828 14.1513 15.5138 14.0189 15.8998 13.9301C16.2712 13.8448 16.7056 13.7723 17.0791 13.8472C17.2093 13.8733 17.3696 13.9386 17.5101 14.0015C17.6669 14.0718 17.8558 14.1657 18.0634 14.2764C18.4791 14.4981 18.9883 14.7983 19.4972 15.1435C20.0042 15.4874 20.5249 15.8847 20.9568 16.3019C21.3747 16.7057 21.7703 17.1857 21.942 17.7033C22.047 18.0201 21.9931 18.3343 21.9089 18.5781C21.8228 18.8274 21.6823 19.0713 21.5238 19.2967C21.2054 19.7497 20.7503 20.2151 20.272 20.621C19.7923 21.0282 19.2619 21.3993 18.7757 21.6511C18.5333 21.7766 18.2853 21.8807 18.0505 21.9414C17.8294 21.9986 17.5495 22.036 17.2813 21.9462C15.7748 21.4417 12.0769 19.915 9.22624 17.3918C7.34323 15.725 5.34526 13.3386 3.93773 11.1774C3.2351 10.0985 2.66312 9.05051 2.3293 8.15748C2.16283 7.71204 2.04479 7.27823 2.01037 6.88336C1.9766 6.4957 2.01742 6.0698 2.25117 5.71725C2.78188 4.91743 3.41596 4.02232 4.05262 3.32235C4.37055 2.97284 4.70474 2.65426 5.04065 2.41957C5.36737 2.19134 5.75643 2.00008 6.17023 2L6.28236 2.00965ZM6.0921 3.24519C6.00452 3.26602 5.87307 3.32213 5.69321 3.44774C5.45745 3.61246 5.19031 3.85991 4.9037 4.17499C4.33116 4.80449 3.73797 5.63601 3.21623 6.42232C3.20453 6.4402 3.16129 6.52955 3.18223 6.77051C3.20275 7.00597 3.27943 7.31934 3.42395 7.70609C3.71227 8.47755 4.23087 9.43942 4.90922 10.481C6.26414 12.5614 8.19296 14.8609 9.98542 16.4475C12.6597 18.8146 16.1775 20.2792 17.625 20.7657C17.6305 20.7654 17.6736 20.7672 17.7693 20.7425C17.8941 20.7102 18.0584 20.6454 18.2546 20.5438C18.646 20.3412 19.1044 20.0251 19.5331 19.6613C19.9632 19.2962 20.3374 18.9055 20.5772 18.5646C20.6975 18.3935 20.7684 18.2557 20.8023 18.1576C20.8151 18.1205 20.8188 18.0961 20.8207 18.0833C20.7391 17.8633 20.5248 17.563 20.1599 17.2105C19.7942 16.8572 19.3329 16.5022 18.8584 16.1803C18.3858 15.8598 17.9122 15.5806 17.5303 15.3769C17.3396 15.2752 17.1754 15.1945 17.0487 15.1377C16.9076 15.0745 16.8524 15.0585 16.8585 15.0596C16.7411 15.0361 16.5139 15.0525 16.1517 15.1358C15.8039 15.2157 15.4267 15.3324 15.0175 15.4492C14.6281 15.5604 14.2045 15.6726 13.83 15.7116C13.4973 15.7462 12.991 15.7498 12.6352 15.3923C12.1435 14.8983 9.19862 11.9406 8.70787 11.4475C8.50945 11.248 8.42797 10.997 8.39721 10.7819C8.36689 10.5698 8.37911 10.3499 8.40549 10.1492C8.45775 9.75154 8.58497 9.28935 8.70236 8.86351C8.82546 8.41692 8.94482 7.98943 9.01485 7.59613C9.08682 7.19176 9.08878 6.90998 9.04059 6.73386C9.03236 6.70394 8.99689 6.61546 8.9064 6.45993C8.82138 6.31386 8.70599 6.13797 8.56541 5.94199C8.28463 5.55057 7.9218 5.10111 7.54796 4.67461C7.17345 4.24736 6.79741 3.85362 6.49191 3.57216C6.33794 3.43032 6.2118 3.32765 6.1206 3.26352C6.11032 3.25631 6.10039 3.25068 6.0921 3.24519Z" fill="black"/>
</svg>
