<svg width="24" height="24" viewBox="0 0 24 24" fill="none" xmlns="http://www.w3.org/2000/svg">
    <path d="M10.125 3.25H13.875C14.2202 3.25 14.5 3.52982 14.5 3.875V5.125H9.5V3.875C9.5 3.52982 9.77982 3.25 10.125 3.25ZM15.75 5.125V3.875C15.75 2.83947 14.9105 2 13.875 2H10.125C9.08947 2 8.25 2.83947 8.25 3.875V5.125H5.13207C5.12782 5.12496 5.12356 5.12496 5.1193 5.125H3.875C3.52982 5.125 3.25 5.40482 3.25 5.75C3.25 6.09518 3.52982 6.375 3.875 6.375H4.548L5.61395 19.6994C5.71789 20.9986 6.80259 22 8.10599 22H15.894C17.1974 22 18.2821 20.9986 18.386 19.6994L19.452 6.375H20.125C20.4702 6.375 20.75 6.09518 20.75 5.75C20.75 5.40482 20.4702 5.125 20.125 5.125H18.8807C18.8764 5.12496 18.8722 5.12496 18.8679 5.125H15.75ZM18.198 6.375L17.14 19.5997C17.0881 20.2493 16.5457 20.75 15.894 20.75H8.10599C7.45429 20.75 6.91194 20.2493 6.85997 19.5997L5.802 6.375H18.198Z"
          fill="currentColor"/>
</svg>
