<svg width="24" height="24" viewBox="0 0 24 24" fill="none" xmlns="http://www.w3.org/2000/svg">
<path d="M12.3164 19.5C15.4746 19.5 17.4331 17.8696 17.4331 15.2651C17.4331 13.3066 15.9565 11.8403 13.9468 11.6865V11.6045C15.5156 11.3687 16.7256 10.0151 16.7256 8.39502C16.7256 6.12891 14.9824 4.70361 12.2036 4.70361H5.76416V19.5H12.3164ZM8.86084 7.01074H11.4038C12.8496 7.01074 13.6802 7.6875 13.6802 8.87695C13.6802 10.1279 12.7368 10.856 11.0859 10.856H8.86084V7.01074ZM8.86084 17.1929V12.8965H11.4551C13.2803 12.8965 14.2749 13.6348 14.2749 15.019C14.2749 16.4341 13.311 17.1929 11.5269 17.1929H8.86084Z" fill="black"/>
</svg>
