<svg width="24" height="24" viewBox="0 0 24 24" fill="none" xmlns="http://www.w3.org/2000/svg">
<path d="M5.57143 2H18.4286C19.8487 2 21 3.11929 21 4.5V8.25C21 9.63071 19.8487 10.75 18.4286 10.75H5.57143C4.15127 10.75 3 9.63071 3 8.25V4.5C3 3.11929 4.15127 2 5.57143 2ZM5.57143 3.25C4.86135 3.25 4.28571 3.80964 4.28571 4.5V8.25C4.28571 8.94036 4.86135 9.5 5.57143 9.5H18.4286C19.1387 9.5 19.7143 8.94036 19.7143 8.25V4.5C19.7143 3.80964 19.1387 3.25 18.4286 3.25H5.57143Z" fill="black"/>
<path d="M5.57143 13.25H18.4286C19.8487 13.25 21 14.3693 21 15.75V19.5C21 20.8807 19.8487 22 18.4286 22H5.57143C4.15127 22 3 20.8807 3 19.5V15.75C3 14.3693 4.15127 13.25 5.57143 13.25ZM5.57143 14.5C4.86135 14.5 4.28571 15.0596 4.28571 15.75V19.5C4.28571 20.1904 4.86135 20.75 5.57143 20.75H18.4286C19.1387 20.75 19.7143 20.1904 19.7143 19.5V15.75C19.7143 15.0596 19.1387 14.5 18.4286 14.5H5.57143Z" fill="black"/>
</svg>
