<svg width="24" height="24" viewBox="0 0 24 24" fill="none" xmlns="http://www.w3.org/2000/svg">
<path d="M18.6785 4.22676C18.9808 3.92441 19.4709 3.92441 19.7733 4.22676C20.0756 4.52911 20.0756 5.0192 19.7733 5.32153L13.0948 12L19.7733 18.6785C20.0756 18.9809 20.0756 19.4709 19.7733 19.7733C19.4709 20.0756 18.9809 20.0756 18.6785 19.7733L12 13.0948L5.32153 19.7733C5.0192 20.0756 4.52911 20.0756 4.22676 19.7733C3.92441 19.4709 3.92441 18.9808 4.22676 18.6785L10.9052 12L4.22676 5.32153C3.92441 5.01918 3.92441 4.5291 4.22676 4.22676C4.5291 3.92441 5.01918 3.92441 5.32153 4.22676L12 10.9052L18.6785 4.22676Z" fill="black"/>
</svg>
